<svg id="Layer_1" data-name="Layer 1" xmlns="http://www.w3.org/2000/svg" viewBox="0 0 172.14 184.46"><title>gb-apply</title><path d="M745.87,21.36c2.11,0.69,4.25,1.32,6.34,2.08,14,5.06,23.9,14.35,28.43,28.67,4.12,13,2,25.42-4.63,37.18a43.7,43.7,0,0,1-2.91,4.47,1.58,1.58,0,0,0,.08,2.26c6.78,8.71,68.36,88.45,72.77,94.17,0.33,0.43.65,0.89,1.06,1.45,13,3.86-47.46,2-49.5,2.09-2.16-2.88-51.21-66.4-58.32-75.69a2.42,2.42,0,0,0-2.72-1.05,54.36,54.36,0,0,1-19.87.43,49.5,49.5,0,0,1-24.33-10.87,43,43,0,0,1-14.34-23,43.6,43.6,0,0,1,0-20.72,50.92,50.92,0,0,1,5.71-14.08c0.22-.38.51-0.71,1-1.33,0.9,2.05,1.71,3.84,2.47,5.64,3.81,9,7.64,18,11.4,27a2.65,2.65,0,0,0,2.43,1.85c10.2,1.18,33.16,3.82,34.38,4.12A2.3,2.3,0,0,0,738,84.79c6-8,19.94-26.59,20.93-27.81a2.07,2.07,0,0,0,.33-2.46q-6.76-15.6-13.39-31.25a18.85,18.85,0,0,1-.59-1.88Z" transform="translate(-676.69 -9.63)"/><path d="M748.89,41.67q-5.7-13.29-11.35-26.59a2.59,2.59,0,0,0-2.34-1.83c-5.94-.65-11.86-1.44-17.79-2.15-4-.49-8-0.94-12.45-1.46a10.78,10.78,0,0,0-1.53,1.45c-5.83,7.7-11.61,15.42-17.44,23.11a2.53,2.53,0,0,0-.4,2.93C689.45,46,693.23,55,697,63.91a2.61,2.61,0,0,0,2.38,1.8q14.56,1.72,29.11,3.61A2.61,2.61,0,0,0,731.16,68c5.77-7.72,11.54-15.46,17.4-23.13A2.78,2.78,0,0,0,748.89,41.67ZM717.26,56.75a17.26,17.26,0,1,1,17.26-17.26A17.27,17.27,0,0,1,717.26,56.75Z" transform="translate(-676.69 -9.63)"/></svg>