<svg id="Layer_1" data-name="Layer 1" xmlns="http://www.w3.org/2000/svg" viewBox="0 0 168.74 128"><title>gb-admin</title><path d="M760.54,913.42q37.42,0,74.83,0c8.51,0,9,.45,9,9.15q0,47.11,0,94.21c0,8-.72,8.69-8.86,8.7q-74.17,0-148.33,0c-9.82,0-11.51-1.8-11.51-11.77q0-45.1,0-90.2c0-8.77,1.3-10.08,10.06-10.08Q723.12,913.39,760.54,913.42Zm0.14,103.51c23,0,45.92-.15,68.88.11,5.56,0.06,7.27-1.69,7.22-7.25q-0.37-40.45,0-80.91c0-5.54-1.7-7.27-7.25-7.25q-68.88.28-137.76,0c-5.61,0-7.25,1.81-7.21,7.29q0.34,40.45,0,80.91c-0.05,5.62,1.76,7.26,7.26,7.2C714.76,1016.78,737.72,1016.93,760.68,1016.93Z" transform="translate(-675.63 -913.41)"/><rect x="43.88" y="117.71" width="80.99" height="10.29"/><path d="M726,960.8h-5.65q-14.05,0-28.1,0c-0.66,0-.91-0.15-0.87-0.77,0.05-1.09,0-2.18,0-3.27a3.39,3.39,0,0,1,1.64-3,54.21,54.21,0,0,1,9.06-5.2,1.3,1.3,0,0,0,.94-1.4c-0.06-1.57,0-3.15,0-4.73a3.14,3.14,0,0,0-.48-1.07,6,6,0,0,1-.9-2c-0.11-2.23-.09-4.46,0-6.69,0.09-3,2.51-5.22,5.78-5.48,2.12-.17,4.21-0.14,6,1.16A5.55,5.55,0,0,1,715.9,933c0,2,0,4,0,6a3,3,0,0,1-1.08,2.42,1.11,1.11,0,0,0-.35.75c0,1.77,0,3.54,0,5.31a0.94,0.94,0,0,0,.74.91,59.18,59.18,0,0,1,9,5.13,3.55,3.55,0,0,1,1.84,3.34C725.95,958.19,726,959.45,726,960.8Z" transform="translate(-675.63 -913.41)"/><path d="M775.31,960.8h-5.65q-14.05,0-28.1,0c-0.66,0-.91-0.15-0.87-0.77,0.05-1.09,0-2.18,0-3.27a3.39,3.39,0,0,1,1.64-3,54.21,54.21,0,0,1,9.06-5.2,1.3,1.3,0,0,0,.94-1.4c-0.06-1.57,0-3.15,0-4.73a3.14,3.14,0,0,0-.48-1.07,6,6,0,0,1-.9-2c-0.11-2.23-.09-4.46,0-6.69,0.09-3,2.51-5.22,5.78-5.48,2.12-.17,4.21-0.14,6,1.16a5.55,5.55,0,0,1,2.48,4.61c0,2,0,4,0,6a3,3,0,0,1-1.08,2.42,1.11,1.11,0,0,0-.35.75c0,1.77,0,3.54,0,5.31a0.94,0.94,0,0,0,.74.91,59.18,59.18,0,0,1,9,5.13,3.55,3.55,0,0,1,1.84,3.34C775.24,958.19,775.31,959.45,775.31,960.8Z" transform="translate(-675.63 -913.41)"/><path d="M826.54,960.8h-5.65q-14.05,0-28.1,0c-0.66,0-.91-0.15-0.87-0.77,0.05-1.09,0-2.18,0-3.27a3.39,3.39,0,0,1,1.64-3,54.21,54.21,0,0,1,9.06-5.2,1.3,1.3,0,0,0,.94-1.4c-0.06-1.57,0-3.15,0-4.73a3.14,3.14,0,0,0-.48-1.07,6,6,0,0,1-.9-2c-0.11-2.23-.09-4.46,0-6.69,0.09-3,2.51-5.22,5.78-5.48,2.12-.17,4.21-0.14,6,1.16a5.55,5.55,0,0,1,2.48,4.61c0,2,0,4,0,6a3,3,0,0,1-1.08,2.42,1.11,1.11,0,0,0-.35.75c0,1.77,0,3.54,0,5.31a0.94,0.94,0,0,0,.74.91,59.18,59.18,0,0,1,9,5.13,3.55,3.55,0,0,1,1.84,3.34C826.47,958.19,826.54,959.45,826.54,960.8Z" transform="translate(-675.63 -913.41)"/><path d="M725.05,1005h-5.65q-14.05,0-28.1,0c-0.66,0-.91-0.15-0.87-0.77,0.05-1.09,0-2.18,0-3.27a3.39,3.39,0,0,1,1.64-3,54.21,54.21,0,0,1,9.06-5.2,1.3,1.3,0,0,0,.94-1.4c-0.06-1.57,0-3.15,0-4.73a3.14,3.14,0,0,0-.48-1.07,6,6,0,0,1-.9-2c-0.11-2.23-.09-4.46,0-6.69,0.09-3,2.51-5.22,5.78-5.48,2.12-.17,4.21-0.14,6,1.16a5.55,5.55,0,0,1,2.48,4.61c0,2,0,4,0,6a3,3,0,0,1-1.08,2.42,1.11,1.11,0,0,0-.35.75c0,1.77,0,3.54,0,5.31a0.94,0.94,0,0,0,.74.91,59.18,59.18,0,0,1,9,5.13,3.55,3.55,0,0,1,1.84,3.34C725,1002.44,725.05,1003.7,725.05,1005Z" transform="translate(-675.63 -913.41)"/><path d="M774.35,1005H768.7q-14.05,0-28.1,0c-0.66,0-.91-0.15-0.87-0.77,0.05-1.09,0-2.18,0-3.27a3.39,3.39,0,0,1,1.64-3,54.21,54.21,0,0,1,9.06-5.2,1.3,1.3,0,0,0,.94-1.4c-0.06-1.57,0-3.15,0-4.73a3.14,3.14,0,0,0-.48-1.07,6,6,0,0,1-.9-2c-0.11-2.23-.09-4.46,0-6.69,0.09-3,2.51-5.22,5.78-5.48,2.12-.17,4.21-0.14,6,1.16a5.55,5.55,0,0,1,2.48,4.61c0,2,0,4,0,6a3,3,0,0,1-1.08,2.42,1.11,1.11,0,0,0-.35.75c0,1.77,0,3.54,0,5.31a0.94,0.94,0,0,0,.74.91,59.18,59.18,0,0,1,9,5.13,3.55,3.55,0,0,1,1.84,3.34C774.28,1002.44,774.35,1003.7,774.35,1005Z" transform="translate(-675.63 -913.41)"/><path d="M825.57,1005h-5.65q-14.05,0-28.1,0c-0.66,0-.91-0.15-0.87-0.77,0.05-1.09,0-2.18,0-3.27a3.39,3.39,0,0,1,1.64-3,54.21,54.21,0,0,1,9.06-5.2,1.3,1.3,0,0,0,.94-1.4c-0.06-1.57,0-3.15,0-4.73a3.14,3.14,0,0,0-.48-1.07,6,6,0,0,1-.9-2c-0.11-2.23-.09-4.46,0-6.69,0.09-3,2.51-5.22,5.78-5.48,2.12-.17,4.21-0.14,6,1.16a5.55,5.55,0,0,1,2.48,4.61c0,2,0,4,0,6a3,3,0,0,1-1.08,2.42,1.11,1.11,0,0,0-.35.75c0,1.77,0,3.54,0,5.31a0.94,0.94,0,0,0,.74.91,59.18,59.18,0,0,1,9,5.13,3.55,3.55,0,0,1,1.84,3.34C825.5,1002.44,825.57,1003.7,825.57,1005Z" transform="translate(-675.63 -913.41)"/></svg>