<svg id="Layer_1" data-name="Layer 1" xmlns="http://www.w3.org/2000/svg" viewBox="0 0 133.95 137"><title>gb-activity</title><path d="M960,537.35l-5.61,12-0.31,0L947,528.83l-0.26,0c-0.15.38-.32,0.75-0.45,1.13-1.15,3.53-2.31,7.06-3.42,10.6a1.36,1.36,0,0,1-1.5,1.17q-14.06-.05-28.12,0a0.83,0.83,0,0,1-1-1c0-1.31,0-2.62,0-3.93a0.91,0.91,0,0,1,1.1-1.15c4.88,0,9.76,0,14.64,0,2.65,0,5.3,0,8,0a1.28,1.28,0,0,0,1.43-1.1q4.33-13.47,8.73-26.93c0.12-.37.26-0.73,0.39-1.1l0.31,0,8.32,24.06,0.29,0.06,6.63-14.2h0.31L971.73,553l0.32,0,5.19-90.22,0.27,0c0.1,0.42.22,0.84,0.3,1.27q2.25,11.76,4.5,23.52,3.42,17.78,6.87,35.56c0.81,4.18,1.62,8.36,2.37,12.55a1.24,1.24,0,0,0,1.45,1.25q10.86-.06,21.72,0a1.44,1.44,0,0,0,1.63-1.24c2.62-8.43,5.3-16.85,8-25.27,0.08-.27.21-0.52,0.43-1.07,0.59,1.8,1.1,3.31,1.58,4.82,2.28,7.21,4.56,14.42,6.8,21.64a1.31,1.31,0,0,0,1.52,1.1c3.52,0,7,0,10.57,0a0.82,0.82,0,0,1,1,1c-0.05,1.38,0,2.75,0,4.13a0.76,0.76,0,0,1-.88,1q-8.19,0-16.38,0a1.24,1.24,0,0,1-1.35-1.09c-0.75-2.5-1.55-5-2.34-7.47a2.75,2.75,0,0,0-.64-1.14c-0.12.31-.26,0.61-0.36,0.93-0.79,2.49-1.6,5-2.33,7.48a1.5,1.5,0,0,1-1.7,1.29c-10.63,0-21.26,0-31.9,0-2.66,0-2.67,0-3.19-2.69q-1.73-9-3.45-18c-0.09-.45-0.21-0.89-0.32-1.33l-0.28,0-4.51,78.74-0.34,0-15.9-62.38Z" transform="translate(-912.28 -462.75)"/></svg>