<svg id="Layer_1" data-name="Layer 1" xmlns="http://www.w3.org/2000/svg" viewBox="0 0 163.79 127.59"><title>gb-checklist</title><rect x="50.73" y="11.01" width="113.06" height="19.06"/><rect x="50.73" y="54.27" width="113.06" height="19.06"/><rect x="50.73" y="97.53" width="84.91" height="19.06"/><polygon points="13 36.24 0 22.05 2.38 22.21 16.67 32.55 13 36.24"/><polygon points="43.69 2.74 16.14 38.35 12.46 35.61 40.01 0 43.69 2.74"/><polygon points="13 125.48 0 111.29 2.38 111.45 16.67 121.79 13 125.48"/><polygon points="43.69 91.98 16.14 127.59 12.46 124.85 40.01 89.24 43.69 91.98"/><polygon points="13 80.86 0 66.67 2.38 66.83 16.67 77.17 13 80.86"/><polygon points="43.69 47.36 16.14 82.97 12.46 80.23 40.01 44.62 43.69 47.36"/></svg>