<svg id="Layer_1" data-name="Layer 1" xmlns="http://www.w3.org/2000/svg" viewBox="0 0 134.93 117.32"><title>gb-components</title><path d="M720.87,137.71H706a3.85,3.85,0,0,1-4-4.12c0-5.44,0-10.88,0-16.32,0-.44,0-0.87-0.09-1.69-1.72.77-3.22,1.38-4.66,2.1a6.06,6.06,0,0,1-7.71-1.47,6,6,0,0,1,.23-7.73,6.12,6.12,0,0,1,7.68-1,17.58,17.58,0,0,0,3.15,1.37c0.93,0.34,1.44.09,1.42-1.07-0.05-3.25,0-6.51,0-9.77,0-2.43,0-4.86,0-7.29a3.68,3.68,0,0,1,4-4c5.27,0,10.55,0,15.82,0,1.64,0,1.81-.15,1.29-1.69s-1.3-3.1-2-4.66a6,6,0,0,1,9.73-6.58,6.21,6.21,0,0,1,.75,7.43,20.8,20.8,0,0,0-1.52,4.12c-0.28.95,0.12,1.39,1.21,1.38,5.56,0,11.13.08,16.69,0,3-.07,4.85,1.53,4.73,4.7-0.18,4.61,0,9.23,0,13.84,0,0.45,0,.89,0,1.73-1-.52-1.73-0.86-2.42-1.31a8.32,8.32,0,0,0-13,5.52,7.92,7.92,0,0,0,3.2,8.05,8,8,0,0,0,8.74.84c1.07-.5,2.11-1.05,3.3-1.66a11.34,11.34,0,0,1,.13,1.13c0,4.78,0,9.56,0,14.34a3.83,3.83,0,0,1-3.87,3.88H732.16a24.71,24.71,0,0,1,1.24-2.48,8.08,8.08,0,0,0,.42-9A7.86,7.86,0,0,0,726,122a8,8,0,0,0-7.36,5.7,8.28,8.28,0,0,0,.73,6.91C719.83,135.55,720.26,136.47,720.87,137.71Z" transform="translate(-688.21 -20.39)"/><path d="M732.62,85c0.46-.85.73-1.45,1.08-2a8.37,8.37,0,0,0-11.79-11.59,8.34,8.34,0,0,0-2.53,10.5c0.45,1,.94,1.89,1.54,3.09H705.61a3.45,3.45,0,0,1-3.69-3.37c-0.06-5.52,0-11,0-16.56a2.17,2.17,0,0,1,.22-0.46c0.73,0.4,1.49.74,2.17,1.2a8.38,8.38,0,0,0,9.73-13.63,8.21,8.21,0,0,0-9.19-.65c-0.9.45-1.8,0.89-2.9,1.43,0-.71-0.07-1.15-0.07-1.59q0-6.61,0-13.22a3.59,3.59,0,0,1,3.91-4c5.44,0,10.88,0,16.31,0h1.64c-0.73-1.67-1.28-3.1-2-4.47a6.55,6.55,0,0,1-.74-4.76,5.65,5.65,0,0,1,4.65-4.41,5.59,5.59,0,0,1,6,2.38,5.73,5.73,0,0,1,.27,6.52,9.27,9.27,0,0,0-1.55,4.76H732l16.19,0c3.09,0,4.47,1.36,4.47,4.42q0,7.48,0,15c0,0.61,0,1.22,0,1.94,1.92,0.12,3.36-.78,4.91-1.39a13.69,13.69,0,0,1,4-1.16A5.51,5.51,0,0,1,767,56.83a6,6,0,0,1-2,6.68,6.26,6.26,0,0,1-6.85.42A22,22,0,0,0,754,62.34c-0.93-.28-1.39.12-1.39,1.22,0,5.77,0,11.54,0,17.3,0,2.71-1.39,4.11-4.09,4.11H732.62Z" transform="translate(-688.21 -20.39)"/><path d="M763.66,74.32c0.5,0.79,1,1.44,1.35,2.15a8,8,0,0,0,7.87,4.76,7.87,7.87,0,0,0,7.35-5,8,8,0,0,0-1.54-9.07,8.43,8.43,0,0,0-6.29-2.69c-1,0-1.94-.12-3.16-0.2l1.23-2.14q3.23-5.63,6.46-11.26a3.48,3.48,0,0,1,4.85-1.53c4.7,2.65,9.37,5.37,14,8.06a6.08,6.08,0,0,1,.6.51c-0.8.49-1.47,1-2.2,1.35a8.39,8.39,0,0,0-4.08,10.6,8.25,8.25,0,0,0,10.46,4.82,8,8,0,0,0,5.63-7c0.15-1.29.19-2.59,0.3-4.19l3.1,1.78c3.25,1.87,6.51,3.73,9.75,5.61,2.16,1.25,2.71,3.15,1.46,5.35-2.68,4.74-5.4,9.44-8.1,14.17-0.21.38-.39,0.77-0.75,1.49,1.87,0.19,3.48.41,5.1,0.49,4.83,0.26,7.61,5.19,5.13,9.16a6,6,0,0,1-10.35-.24,45.66,45.66,0,0,0-3-4c-0.5.78-.77,1.17-1,1.58q-4.06,7.08-8.1,14.16c-1.6,2.79-3.34,3.25-6.13,1.65L780.23,107c-1.23-.7-1.55-0.62-1.84.79a44.52,44.52,0,0,0-.6,4.77,6,6,0,0,1-11.17,2.71A6.13,6.13,0,0,1,769,107a21.56,21.56,0,0,0,3.47-2.89c0.71-.67.59-1.3-0.36-1.83-5-2.79-9.87-5.65-14.83-8.44-1.21-.68-2.22-1.5-2.36-3a3.9,3.9,0,0,1,.33-2.14c2.59-4.64,5.26-9.24,7.91-13.85A6.34,6.34,0,0,1,763.66,74.32Z" transform="translate(-688.21 -20.39)"/></svg>