<svg id="Layer_1" data-name="Layer 1" xmlns="http://www.w3.org/2000/svg" viewBox="0 0 179.11 148.29"><title>gb-collaboration</title><path d="M68,550.73H58.81q-22.77,0-45.54,0c-1.07,0-1.47-.24-1.42-1.24,0.09-1.76.07-3.54,0-5.3a5.5,5.5,0,0,1,2.66-4.86,87.86,87.86,0,0,1,14.68-8.42,2.1,2.1,0,0,0,1.53-2.26c-0.1-2.55,0-5.11-.06-7.66a5.09,5.09,0,0,0-.77-1.73c-0.5-1.05-1.4-2.09-1.45-3.16-0.18-3.61-.15-7.23,0-10.84,0.15-4.79,4.07-8.47,9.37-8.88,3.44-.27,6.83-0.22,9.74,1.88a9,9,0,0,1,4,7.48c0,3.26,0,6.52,0,9.78a4.9,4.9,0,0,1-1.75,3.93,1.8,1.8,0,0,0-.57,1.22c0,2.87,0,5.74,0,8.6a1.53,1.53,0,0,0,1.2,1.48A95.91,95.91,0,0,1,65,539.05c2,1.4,3.14,3,3,5.42C67.85,546.49,68,548.53,68,550.73Z" transform="translate(-11.84 -453.51)"/><path d="M190.91,550.73h-9.15q-22.77,0-45.54,0c-1.07,0-1.47-.24-1.42-1.24,0.09-1.76.07-3.54,0-5.3a5.5,5.5,0,0,1,2.66-4.86,87.86,87.86,0,0,1,14.68-8.42,2.1,2.1,0,0,0,1.53-2.26c-0.1-2.55,0-5.11-.06-7.66a5.09,5.09,0,0,0-.77-1.73c-0.5-1.05-1.4-2.09-1.45-3.16-0.18-3.61-.15-7.23,0-10.84,0.15-4.79,4.07-8.47,9.37-8.88,3.44-.27,6.83-0.22,9.74,1.88a9,9,0,0,1,4,7.48c0,3.26,0,6.52,0,9.78a4.9,4.9,0,0,1-1.75,3.93,1.8,1.8,0,0,0-.57,1.22c0,2.87,0,5.74,0,8.6a1.53,1.53,0,0,0,1.2,1.48A95.91,95.91,0,0,1,188,539.05c2,1.4,3.14,3,3,5.42C190.8,546.49,190.91,548.53,190.91,550.73Z" transform="translate(-11.84 -453.51)"/><path d="M129.44,508h-9.15q-22.77,0-45.54,0c-1.07,0-1.47-.24-1.42-1.24,0.09-1.76.07-3.54,0-5.3A5.5,5.5,0,0,1,76,496.59a87.86,87.86,0,0,1,14.68-8.42,2.1,2.1,0,0,0,1.53-2.26c-0.1-2.55,0-5.11-.06-7.66a5.09,5.09,0,0,0-.77-1.73c-0.5-1.05-1.4-2.09-1.45-3.16-0.18-3.61-.15-7.23,0-10.84C90,457.72,94,454,99.27,453.63c3.44-.27,6.83-0.22,9.74,1.88a9,9,0,0,1,4,7.48c0,3.26,0,6.52,0,9.78a4.9,4.9,0,0,1-1.75,3.93,1.8,1.8,0,0,0-.57,1.22c0,2.87,0,5.74,0,8.6a1.53,1.53,0,0,0,1.2,1.48,95.91,95.91,0,0,1,14.61,8.31c2,1.4,3.14,3,3,5.42C129.32,503.74,129.44,505.78,129.44,508Z" transform="translate(-11.84 -453.51)"/><polygon points="111.56 129.24 100.56 148.29 78.56 148.29 67.56 129.24 78.56 110.19 100.56 110.19 111.56 129.24"/><rect x="84.07" y="59.24" width="10.97" height="42.75"/><polygon points="66.72 118.96 34.59 98.93 46.88 98.85 70.47 112.46 66.72 118.96"/><polygon points="112.43 118.96 144.55 98.93 132.26 98.85 108.68 112.46 112.43 118.96"/></svg>