<svg id="Layer_1" data-name="Layer 1" xmlns="http://www.w3.org/2000/svg" viewBox="0 0 182.34 180.78"><title>gb-community</title><path d="M503.49,291.2c0-4.87,0-9.75,0-14.62a2.82,2.82,0,0,1,1.14-2.44q11.71-9.61,23.38-19.29,6.16-5.09,12.32-10.2a0.89,0.89,0,0,1,1.36,0q14,11.58,28,23.13c2.69,2.22,5.4,4.42,8,6.69a2.35,2.35,0,0,1,.74,1.58c0,9.91,0,19.83,0,29.74,0,3.31-1.67,5-5,5-7.67,0-15.35,0-23,0-1,0-1.11-.48-1.11-1.27q0-11.16,0-22.33c0-1.43,0-1.45-1.42-1.45h-14c-1.32,0-1.39.07-1.39,1.4q0,11.07,0,22.13c0,1.49,0,1.5-1.47,1.5H508.56c-1.79,0-3.51-.31-4.38-2.08a7,7,0,0,1-.66-2.93C503.46,300.94,503.49,296.07,503.49,291.2Z" transform="translate(-449.21 -227.22)"/><path d="M561,242.06v-1.4c0-3.59.42-7.18,0.44-10.77,0-1.84.82-2.41,2.65-2.42h11.67c1.9,0,2.68.73,2.68,2.65,0,8.27,0,16.53,0,24.8a2.26,2.26,0,0,0,.89,1.95c4.31,3.56,8.6,7.16,12.89,10.75,1.4,1.17,1.5,2.19.33,3.63s-2.18,2.63-3.28,3.95c-1.22,1.46-2.2,1.59-3.69.37-2.35-1.91-4.65-3.87-7-5.81l-14.32-12-19.39-16.21c-1.06-.89-2.14-1.75-3.17-2.68a1,1,0,0,0-1.53,0c-4.15,3.5-8.33,7-12.5,10.45l-14.31,12L496.6,275.4a7.8,7.8,0,0,1-.87.64,1.94,1.94,0,0,1-2.88-.39c-1.32-1.52-2.59-3.06-3.85-4.63a2.11,2.11,0,0,1,.35-3.07q5.73-4.84,11.49-9.65L520.32,242c5.23-4.37,10.44-8.76,15.69-13.09a8,8,0,0,1,10.18.21c4.83,4.08,9.25,8.11,14.11,12.16A1.24,1.24,0,0,1,561,242.06Z" transform="translate(-449.21 -227.22)"/><path d="M512.72,371.93H502.36q-25.77,0-51.54,0c-1.21,0-1.66-.27-1.6-1.4,0.1-2,.08-4,0-6a6.22,6.22,0,0,1,3-5.5,99.42,99.42,0,0,1,16.61-9.53A2.38,2.38,0,0,0,470.6,347c-0.11-2.89,0-5.78-.07-8.67a5.76,5.76,0,0,0-.87-2c-0.57-1.19-1.58-2.36-1.64-3.58-0.2-4.08-.17-8.18,0-12.27,0.17-5.42,4.6-9.58,10.61-10.05,3.89-.3,7.73-0.25,11,2.13a10.17,10.17,0,0,1,4.55,8.46c0.05,3.69,0,7.38,0,11.07a5.55,5.55,0,0,1-2,4.45,2,2,0,0,0-.64,1.38c-0.05,3.25,0,6.49,0,9.74a1.73,1.73,0,0,0,1.36,1.67,108.54,108.54,0,0,1,16.53,9.41c2.3,1.59,3.56,3.44,3.37,6.13C512.59,367.14,512.72,369.45,512.72,371.93Z" transform="translate(-449.21 -227.22)"/><path d="M631.49,371.93H621.14q-25.77,0-51.54,0c-1.21,0-1.66-.27-1.6-1.4,0.1-2,.08-4,0-6a6.22,6.22,0,0,1,3-5.5,99.42,99.42,0,0,1,16.61-9.53,2.38,2.38,0,0,0,1.73-2.56c-0.11-2.89,0-5.78-.07-8.67a5.76,5.76,0,0,0-.87-2c-0.57-1.19-1.58-2.36-1.64-3.58-0.2-4.08-.17-8.18,0-12.27,0.17-5.42,4.6-9.58,10.61-10.05,3.89-.3,7.73-0.25,11,2.13a10.17,10.17,0,0,1,4.55,8.46c0.05,3.69,0,7.38,0,11.07a5.55,5.55,0,0,1-2,4.45,2,2,0,0,0-.64,1.38c-0.05,3.25,0,6.49,0,9.74a1.73,1.73,0,0,0,1.36,1.67,108.54,108.54,0,0,1,16.53,9.41c2.3,1.59,3.56,3.44,3.37,6.13C631.37,367.14,631.49,369.45,631.49,371.93Z" transform="translate(-449.21 -227.22)"/><path d="M572.65,408H562.29q-25.77,0-51.54,0c-1.21,0-1.66-.27-1.6-1.4,0.1-2,.08-4,0-6a6.22,6.22,0,0,1,3-5.5,99.42,99.42,0,0,1,16.61-9.53,2.38,2.38,0,0,0,1.73-2.56c-0.11-2.89,0-5.78-.07-8.67a5.76,5.76,0,0,0-.87-2c-0.57-1.19-1.58-2.36-1.64-3.58-0.2-4.08-.17-8.18,0-12.27,0.17-5.42,4.6-9.58,10.61-10.05,3.89-.3,7.73-0.25,11,2.13a10.17,10.17,0,0,1,4.55,8.46c0.05,3.69,0,7.38,0,11.07a5.55,5.55,0,0,1-2,4.45,2,2,0,0,0-.64,1.38c-0.05,3.25,0,6.49,0,9.74a1.73,1.73,0,0,0,1.36,1.67,108.54,108.54,0,0,1,16.53,9.41c2.3,1.59,3.56,3.44,3.37,6.13C572.52,403.19,572.65,405.5,572.65,408Z" transform="translate(-449.21 -227.22)"/></svg>