<svg id="Layer_1" data-name="Layer 1" xmlns="http://www.w3.org/2000/svg" viewBox="0 0 146.31 146.31"><title>gb-discover</title><path d="M296.41,566.4q7.76-12.63,15.54-25.25a3.09,3.09,0,0,0,.39-2.84,8.54,8.54,0,0,1,9.25-10.79,1.77,1.77,0,0,0,1.59-.56q10.24-10,20.5-19.93a3.53,3.53,0,0,1,1.24-.87c-0.16.29-.3,0.59-0.47,0.87q-7.59,12.37-15.16,24.74a2.23,2.23,0,0,0-.21,1.65,8.62,8.62,0,0,1-9.17,11.4,1.76,1.76,0,0,0-1.58.58Q307.66,555.77,297,566.14c-0.15.14-.31,0.27-0.46,0.41Z" transform="translate(-246.85 -462.94)"/><path d="M319.63,483.42v15.7h-4.23V477.19c1.72,0,3.42,0,5.13,0a1.3,1.3,0,0,1,.79.7c2.31,4.47,4.59,8.95,6.87,13.42a0.91,0.91,0,0,0,.46.47V477.25h4.2v21.94c-1.54,0-3.06,0-4.58,0a1.3,1.3,0,0,1-.78-0.7q-3.74-7.28-7.43-14.58l-0.24-.47h-0.18Z" transform="translate(-246.85 -462.94)"/><path d="M320,462.94a73.15,73.15,0,1,0,73.15,73.15A73.15,73.15,0,0,0,320,462.94Zm0,139.46a66.3,66.3,0,1,1,66.3-66.31A66.3,66.3,0,0,1,320,602.4Z" transform="translate(-246.85 -462.94)"/><rect x="366.84" y="525.59" width="12.42" height="21" transform="translate(662.3 -299.89) rotate(90)"/><rect x="262.93" y="525.83" width="12.42" height="21" transform="translate(-514.04 342.53) rotate(-90)"/><rect x="314.45" y="576.69" width="12.42" height="21" transform="translate(394.49 711.45) rotate(-180)"/></svg>