<svg id="Layer_1" data-name="Layer 1" xmlns="http://www.w3.org/2000/svg" viewBox="0 0 185 176.37"><title>gb-explore</title><polygon points="67.5 70 67.5 86 86.5 86 86.5 104 67.5 104 67.5 107.5 82.11 151 0 151 23.9 22 30.5 22 30.5 10 20.5 10 20.5 0 67.5 0 67.5 10 57.5 10 57.5 22 67.5 22 67.5 33 86.5 33 86.5 70 67.5 70"/><rect y="162.66" width="81.76" height="13.71"/><polygon points="115.5 70 115.5 86 96.5 86 96.5 104 115.5 104 115.5 107.5 101.51 151 183.61 151 159.71 22 151.5 22 151.5 10 162.5 10 162.5 0 115.5 0 115.5 10 125.5 10 125.5 22 115.5 22 115.5 33 96.5 33 96.5 70 115.5 70"/><rect x="330.74" y="833.66" width="81.76" height="13.71" transform="translate(515.74 1010.04) rotate(-180)"/><rect x="76.56" y="68.04" width="30.49" height="18.37"/></svg>