<svg id="Layer_1" data-name="Layer 1" xmlns="http://www.w3.org/2000/svg" viewBox="0 0 198.48 174.27"><title>gb-follower</title><path d="M1070.48,841.09h-27.13q-67.5,0-135,0c-3.17,0-4.35-.76-4.2-4,0.26-5.64.22-11.31,0.09-17-0.15-6.56,2.57-11.51,7.88-15.54a256.29,256.29,0,0,1,43.51-26.95c3.4-1.64,4.65-3.57,4.53-7.24-0.29-8.16.07-16.34-.18-24.5-0.06-1.87-1.47-3.71-2.28-5.55-1.49-3.37-4.15-6.68-4.3-10.11-0.54-11.54-.45-23.12-0.11-34.68,0.45-15.32,12.05-27.08,27.79-28.41,10.2-.86,20.25-0.72,28.87,6a29.43,29.43,0,0,1,11.92,23.91c0.13,10.43,0,20.86,0,31.29a16.25,16.25,0,0,1-5.18,12.57,6,6,0,0,0-1.68,3.89c-0.13,9.17,0,18.35-.11,27.52,0,2.71,1.5,3.7,3.57,4.72a279.59,279.59,0,0,1,43.3,26.6c6,4.48,9.32,9.74,8.82,17.33C1070.14,827.55,1070.48,834.07,1070.48,841.09Z" transform="translate(-888.64 -666.86)"/><path d="M975.54,813.37H961.37q-35.26,0-70.53,0c-1.66,0-2.27-.4-2.19-2.07,0.14-2.95.11-5.91,0-8.86a9.38,9.38,0,0,1,4.12-8.12,133.89,133.89,0,0,1,22.73-14.08,3.52,3.52,0,0,0,2.36-3.78c-0.15-4.26,0-8.54-.09-12.8,0-1-.77-1.94-1.19-2.9-0.78-1.76-2.17-3.49-2.25-5.28-0.28-6-.24-12.08-0.06-18.12,0.24-8,6.3-14.15,14.52-14.84,5.33-.45,10.58-0.38,15.08,3.14a15.37,15.37,0,0,1,6.23,12.49c0.07,5.45,0,10.9,0,16.35a8.49,8.49,0,0,1-2.71,6.56,3.11,3.11,0,0,0-.88,2c-0.07,4.79,0,9.59-.06,14.38,0,1.41.78,1.93,1.86,2.47A146.06,146.06,0,0,1,971,793.86c3.15,2.34,4.87,5.09,4.61,9.05C975.37,806.3,975.54,809.7,975.54,813.37Z" transform="translate(-888.64 -666.86)"/><path d="M1087,813.37h-14.17q-35.26,0-70.53,0c-1.66,0-2.27-.4-2.19-2.07,0.14-2.95.11-5.91,0-8.86a9.38,9.38,0,0,1,4.12-8.12A133.89,133.89,0,0,1,1027,780.26a3.52,3.52,0,0,0,2.36-3.78c-0.15-4.26,0-8.54-.09-12.8,0-1-.77-1.94-1.19-2.9-0.78-1.76-2.17-3.49-2.25-5.28-0.28-6-.24-12.08-0.06-18.12,0.24-8,6.3-14.15,14.52-14.84,5.33-.45,10.58-0.38,15.08,3.14a15.37,15.37,0,0,1,6.23,12.49c0.07,5.45,0,10.9,0,16.35a8.49,8.49,0,0,1-2.71,6.56,3.11,3.11,0,0,0-.88,2c-0.07,4.79,0,9.59-.06,14.38,0,1.41.78,1.93,1.86,2.47a146.06,146.06,0,0,1,22.62,13.89c3.15,2.34,4.87,5.09,4.61,9.05C1086.87,806.3,1087,809.7,1087,813.37Z" transform="translate(-888.64 -666.86)"/></svg>