<svg id="Layer_1" data-name="Layer 1" xmlns="http://www.w3.org/2000/svg" viewBox="0 0 150.01 160.62"><title>gb-goal</title><path d="M323.55,453.38c3.62,0.62,7.29,1.1,10.87,1.9,31.84,7.13,53.44,30.19,57.58,61.39,4,30.07-10.93,58-38.5,72-0.86.44-1.77,0.8-3.11,1.4l-5.27-13.6c30.18-15.8,36.86-46.51,28.83-69.54-7.82-22.42-31.11-38.43-55.76-38.37-25.88.07-48.48,15.49-56.79,38.51-8,22-1.37,52,28.6,69a8.09,8.09,0,0,1-.31,1.31c-1.69,4.07-3.4,8.13-5.53,13.23-5.8-4-11.68-7.34-16.6-11.66-17.78-15.61-25.89-35.32-24.84-58.33,1.46-31.92,28.85-60.95,61.7-65.84,3.16-.47,6.31-1,9.47-1.45h9.67Z" transform="translate(-242.62 -453.38)"/><path d="M341,567.09L335.57,552h17.65l0.45-.85-10.6-7.69c11.27-17,3.3-33.55-6.46-41.28-11.15-8.84-27.51-8.46-39,.66-10.06,8-16.82,23.94-5.64,40.67L281.5,551l0.25,0.73h17.83l-5.38,15.11c-17.38-7.47-28.52-27.75-24.75-49.87,3.73-21.89,24.19-38.25,48.07-38.44,23.21-.18,44.1,15.75,48.19,37S360.32,558.61,341,567.09Z" transform="translate(-242.62 -453.38)"/><path d="M317.54,525.38L303.93,535c-4.54-6.82-3.15-16.93,2.85-22s15.23-5,21.46.09a17,17,0,0,1,3.51,22.31Z" transform="translate(-242.62 -453.38)"/><path d="M278.83,614H355c-1.47-5-20.34-55.94-21.69-59.72-1.74-4.88-1.6-5.21,3.95-5.23,2.6,0,5.2-.07,8.81-0.07-10-7.14-19.27-13.72-28.56-20.31L289,548.95h11c2.44,0,3.37,1,2.38,3.56C300.71,556.77,280.53,608,278.83,614Zm47.38-6H309.82l4.24-33h7.38Zm-8.58-67.41,0.57-.05L319,551h-2.31ZM316.3,553H319l1.49,17h-5.69Z" transform="translate(-242.62 -453.38)"/></svg>