<svg id="Layer_1" data-name="Layer 1" xmlns="http://www.w3.org/2000/svg" viewBox="0 0 140.76 131.22"><title>gb-guideline</title><path d="M1031.27,312.71V330.3l-26.39-22,26.34-21.95v17.55h12.93a4.41,4.41,0,0,0,4.7-4.7q0-12.87,0-25.74a4.41,4.41,0,0,0-4.75-4.74H961V260c0.31,0,.63,0,1,0h82.35a12.85,12.85,0,0,1,13.27,13.17c0,8.79-.08,17.59,0,26.38a13.21,13.21,0,0,1-13.37,13.23c-3.94,0-7.88,0-11.82,0h-1.14Z" transform="translate(-916.84 -251.8)"/><path d="M952.08,303.91v8.8H930.58c-3.05,0-4.85,1.79-4.85,4.82q0,17.18,0,34.35a4.42,4.42,0,0,0,4.78,4.8H986.3c0.3,0,.59,0,1-0.05V339.09l26.4,22L987.36,383V365.48H930.63A13.52,13.52,0,0,1,916.84,352q0-17.22,0-34.44a13.38,13.38,0,0,1,13.7-13.65q10.26,0,20.52,0h1Z" transform="translate(-916.84 -251.8)"/><rect width="35.16" height="25.53"/><rect x="44.14" y="43.32" width="35.16" height="25.53"/><rect x="105.6" y="96.77" width="35.16" height="25.53"/></svg>