<svg id="Layer_1" data-name="Layer 1" xmlns="http://www.w3.org/2000/svg" viewBox="0 0 172.5 175"><title>gb-hobby</title><path d="M321.5,18c43.35,0,87,42.87,87,87.64S365.69,193,322.25,193,235.92,152.08,236,107.23,278.14,18,321.5,18Zm1.32,9.37c-41.87,0-75.92,35.23-75.92,78.47S281,184.38,323,184.32s75.91-35.2,75.92-78.46S364.76,27.33,322.82,27.37Z" transform="translate(-236 -18)"/><path d="M324,165v15.17h-2.64c0-2.06,0-4,0-6q0-3.53,0-7.07C321.33,164.57,321.33,164.57,324,165Z" transform="translate(-236 -18)"/><path d="M324.25,39.16c0,2.09-.05,4.19,0,6.27,0,1.13-.5,1.27-1.39,1.27s-1.4-.14-1.39-1.27q0.08-6.51,0-13c0-1.2.65-1.18,1.46-1.19s1.33,0.15,1.31,1.19C324.22,34.66,324.25,36.91,324.25,39.16Z" transform="translate(-236 -18)"/><path d="M350.4,53.75l7.33-13.12L360.11,42,355,51.09l-1.29,2.31C352.54,55.57,352.39,55.6,350.4,53.75Z" transform="translate(-236 -18)"/><path d="M295.45,53.84l-2.39,1.39L285.66,42,288,40.49Z" transform="translate(-236 -18)"/><path d="M385.88,141.86l-1.36,2.45-12.91-7.71,1.38-2.44Z" transform="translate(-236 -18)"/><path d="M261.07,67.2L274,74.89l-1.31,2.48-12.87-7.68Z" transform="translate(-236 -18)"/><path d="M272.5,134l1.38,2.44L261,144.12l-1.4-2.43Z" transform="translate(-236 -18)"/><path d="M360,169.6L357.58,171l-7.43-13.3,2.33-1.48Z" transform="translate(-236 -18)"/><path d="M250.89,107c-0.51-2.62-.42-2.73,2-2.73,3.73,0,7.47,0,11.2,0,1,0,1.59,0,1.62,1.37s-0.66,1.47-1.67,1.46c-3.88,0-7.77,0-11.65,0C251.84,107.06,251.35,107,250.89,107Z" transform="translate(-236 -18)"/><path d="M394.75,107.23c-4.7,0-9.34,0-14,0-1.08,0-.84-0.94-0.74-1.51a1.7,1.7,0,0,1,.87-1.22,13.56,13.56,0,0,1,2.72-.06h9.09C395.14,104.43,395.14,104.43,394.75,107.23Z" transform="translate(-236 -18)"/><path d="M285.48,169.52l7.44-13.32,2.39,1.38-7.43,13.32Z" transform="translate(-236 -18)"/><path d="M373.08,77.51l-1.38-2.43,12.85-7.68L386,69.79Z" transform="translate(-236 -18)"/><path d="M258.38,66c2.11,1.75,4,3.29,5.87,4.87A8,8,0,0,0,270.5,73a7.62,7.62,0,0,0,6.76-5.36A7.72,7.72,0,0,0,275,59.18c-1.77-1.53-3.59-3-5.4-4.49l-1.09-.9a24,24,0,0,1,2.67-.74,15.63,15.63,0,0,1,18.34,16.79,1.8,1.8,0,0,0,.69,1.73Q309.63,87.64,329,103.76a3.82,3.82,0,0,0,2.66,1,11.41,11.41,0,0,1,10.94,8.6A11.55,11.55,0,1,1,320,118.18a2.68,2.68,0,0,0-.83-1.49Q299.55,100.31,279.85,84a1.78,1.78,0,0,0-1.84-.33A15.65,15.65,0,0,1,258.2,67.44C258.23,67,258.3,66.62,258.38,66Zm76.24,47.17c-2.8-2.23-1.68-1.89-4.62-1.05-1.94.55-2.67,1.59-3,3.55a4.49,4.49,0,0,0,6,4.93,3.79,3.79,0,0,0,2.91-3.51C336.15,115.24,336.29,113.76,334.63,113.13Z" transform="translate(-236 -18)"/><path d="M328.5,116.65c-2.55,5.23-5.12,10.46-7.65,15.7a7.19,7.19,0,0,1-6.65,4.41,1.34,1.34,0,0,0-1,.62q-4.93,10-9.78,20a4.66,4.66,0,0,0-.34,1.53,11.61,11.61,0,0,1-2,5.63c-1.27,1.8-2.48,3.63-3.7,5.46a0.67,0.67,0,0,1-1,.3q-1.57-.81-3.17-1.55a0.67,0.67,0,0,1-.39-1c0.87-2.58,1.57-5.24,2.65-7.73a20.44,20.44,0,0,1,2.78-3.78,8.35,8.35,0,0,0,.91-1.27q4.83-9.84,9.64-19.7a1.12,1.12,0,0,0-.12-1.34,6.88,6.88,0,0,1-.71-7.61q7.8-16,15.64-32.06a7.08,7.08,0,0,1,12.48-.56,6.81,6.81,0,0,1,.19,6.84ZM318.84,112h0l-5.94,12.19c-0.49,1-1,2-1.43,3a1,1,0,0,0,.45,1.35,1,1,0,0,0,1.36-.42,7.12,7.12,0,0,0,.43-0.82l14.13-29c0.57-1.17.52-1.78-.17-2.1s-1.13,0-1.69,1.15Zm6.61,3.19,7.12-14.61a1.74,1.74,0,0,0,.34-0.84,1.83,1.83,0,0,0-.6-1.17,1.36,1.36,0,0,0-1.59,1.06l-14.21,29.13a1.9,1.9,0,0,0-.35.84,2,2,0,0,0,.48,1.24,0.89,0.89,0,0,0,1.34-.39,7.55,7.55,0,0,0,.43-0.82Z" transform="translate(-236 -18)"/><path d="M294.08,127a11.92,11.92,0,0,1,1.07-1.34c2-1.84,3.84-3.77,5.93-5.45,3.39-2.72,6.87-5.33,10.39-7.88,3.7-2.68,7.45-5.31,11.25-7.84,5.38-3.57,10.77-7.12,16.26-10.52,5.1-3.17,10.32-6.15,15.51-9.16,1.8-1,3.68-2,5.53-2.91a1.37,1.37,0,0,1,2.13.47c0.76,1.08,1.47,2.2,2.15,3.33a1.23,1.23,0,0,1-.34,1.83c-3.3,2.54-6.57,5.13-9.93,7.59q-5.5,4-11.14,7.88Q337,107,331,110.78c-4.39,2.79-8.79,5.57-13.27,8.19s-9.19,5.23-13.87,7.69c-2.11,1.11-4.41,1.86-6.62,2.77l-0.19.05c-1.8.49-2.4,0.22-3.22-1.42Z" transform="translate(-236 -18)"/><path d="M390.64,67.24c-0.73,1.34-1.39,2.71-2.2,4A36.82,36.82,0,0,1,381,80.3a15.8,15.8,0,0,1-12.17,4,5.7,5.7,0,0,1-4.9-3.29A6.52,6.52,0,0,1,364,75.7a16.66,16.66,0,0,1,7.38-8.18,2.58,2.58,0,0,1,3.5.38c0.52,0.46,1,.94,1.52,1.43a4.38,4.38,0,0,0,4.72,1,18.31,18.31,0,0,0,4.78-2.69c1.12-.78,2.27-1.52,3.44-2.21a1,1,0,0,1,1.57.34Z" transform="translate(-236 -18)"/><path d="M374.55,78.94a1.26,1.26,0,0,1-.59,1.5,1.1,1.1,0,0,1-1.52-.2c-0.58-.73-1.09-1.53-1.61-2.3-0.39-.57-0.79-1.14-1.13-1.75a4.44,4.44,0,0,1-.32-0.94,1.3,1.3,0,0,1,2.17-.9,7.25,7.25,0,0,1,1,1.28" transform="translate(-236 -18)"/></svg>