<svg id="Layer_1" data-name="Layer 1" xmlns="http://www.w3.org/2000/svg" viewBox="0 0 142.19 133.73"><title>gb-handpicked</title><path d="M465,250.77c1.91-7.22,19.75-11.84,27.12-11.19,14,1.23,28,2.75,42,4.39,5.65,0.67,9.77,5,10.94,11.06,1.85,9.62,3.58,19.27,5.09,28.95,0.48,3.05,1.61,4.7,4.67,5.65,15.33,4.74,30.59,9.72,45.88,14.58,4.56,1.45,6.71,4.48,5.9,8.46s-4.12,6.08-8.82,5.17c-18.27-3.53-36.51-7.23-54.77-10.87-5.57-1.11-11.15-2.19-16.71-3.37-3.36-.71-6.26-0.11-8.31,2.8s-1.42,5.93.52,8.71c3.42,4.89,7,9.69,10.26,14.67,2.58,3.9,1.66,8.45-1.9,10.37-3.13,1.69-6.09,1.1-8.61-1.31-15-14.31-34.28-30.33-49.22-44.72C465.41,290.72,463.54,256.13,465,250.77Z" transform="translate(-464.48 -239.52)"/><path d="M599.84,337.25c-2.69.52-5.09,1-7.49,1.43a8,8,0,0,0-5.62,3.48,7.62,7.62,0,0,0-.15,8.63,7.72,7.72,0,0,0,7.95,3.59c2.31-.4,4.6-0.87,6.9-1.31l1.39-.27a24,24,0,0,1-1.13,2.53,15.63,15.63,0,0,1-24.62,3.5,1.8,1.8,0,0,0-1.78-.57q-24.75,4.8-49.52,9.53a3.82,3.82,0,0,0-2.47,1.41,11.41,11.41,0,0,1-13.58,3,11.55,11.55,0,1,1,10.62-20.49,2.68,2.68,0,0,0,1.68.3q25.14-4.78,50.26-9.62a1.78,1.78,0,0,0,1.42-1.21,15.65,15.65,0,0,1,25.11-5C599.11,336.44,599.38,336.75,599.84,337.25ZM515,366.17c3.5-.75,2.53-0.1,3.75-2.9,0.81-1.85.47-3.07-.84-4.57a4.49,4.49,0,0,0-7.62,1.5,3.79,3.79,0,0,0,.86,4.48C512.38,366,513.44,367.05,515,366.17Z" transform="translate(-464.48 -239.52)"/></svg>