<svg id="Layer_1" data-name="Layer 1" xmlns="http://www.w3.org/2000/svg" viewBox="0 0 155.61 154.55"><title>gb-journal</title><path d="M140,238H32v20H23v10h9v20H23v9h9v20H23v10h9v18H23v10h9v17l48.79,0.07C80.91,372,137.5,297,137.5,297ZM42.07,350c0.09-3.47,12.62-3.38,12.6.2S42,353.44,42.07,350Zm0-28.47c0-3.53,12.66-3.36,12.59.18S42.06,325,42.07,321.53Zm0-29c-0.07-3.42,12.56-3.69,12.6-.16S42.13,295.94,42.07,292.53Zm0-29.18c0-3.48,12.57-3.51,12.6,0S42,266.9,42.07,263.35Z" transform="translate(-23 -238)"/><path d="M140,359.7V372h-4.27c-7.74,0-15.48-.11-23.22-0.12a7.2,7.2,0,0,1-1.36-.31,6,6,0,0,1,.54-1.26q13.74-18,27.51-35.88c0.22-.28.45-0.57,0.69-0.84s0.49-.5.73-0.75a5.22,5.22,0,0,1,.27,1.16c0,1.71,0,3.43,0,5.13,0,3.85-.44,7.7-0.44,11.55C140.44,353.69,140,356.7,140,359.7Z" transform="translate(-23 -238)"/><path d="M178.61,273.71a18.54,18.54,0,0,1-1.27,2.51c-1.24,1.72-2.58,3.35-3.84,5a1.29,1.29,0,0,1-1.07.72,1.44,1.44,0,0,1-.81-0.39c-3-2.49-6.07-4.93-9.14-7.36a1.56,1.56,0,0,1-.4-0.43,1.08,1.08,0,0,1,.26-1.38c1.44-1.8,2.78-3.67,4.23-5.45,1.28-1.56,2.69-1.82,4.25-.65,2.22,1.64,4.36,3.4,6.45,5.21A9.15,9.15,0,0,1,178.61,273.71Z" transform="translate(-23 -238)"/><path d="M79.31,386.06c0.34-1.67.67-3.16,0.93-4.67,0.17-1,.59-0.68,1.06-0.3,2.67,2.15,5.35,4.28,8,6.48a1.24,1.24,0,0,1-.11,1.12,34.1,34.1,0,0,1-4,1.93C83.83,391.13,79.19,387.26,79.31,386.06Z" transform="translate(-23 -238)"/><path d="M77.53,391.69l1.22-2.76L81.08,391c-1,.53-1.91,1.08-2.89,1.56A4.87,4.87,0,0,1,77.53,391.69Z" transform="translate(-23 -238)"/><path d="M169.85,286C157.25,302.3,105.56,369.9,93,386.26c-0.36.47-.79,0.88-1.21,1.35-0.51-.35-11.71-9.17-10.81-10.33q10.45-13.48,20.81-27c5.45-7.1,32.22-42.2,39.14-51.22,5.45-7.1,11.86-14.2,17.29-21.32,0.84-1.11,1.24-1.64,1.74-1.65a1.56,1.56,0,0,0,.4.43c3.07,2.43,6.11,4.87,9.14,7.36a1.44,1.44,0,0,0,.81.39C170.55,284.7,170.42,285.21,169.85,286Z" transform="translate(-23 -238)"/><path d="M140,339v20.7c0-3,.44-6.08.44-9.08,0-3.85.45-7.62,0.44-11.62H140Z" transform="translate(-23 -238)"/></svg>