<svg id="Layer_1" data-name="Layer 1" xmlns="http://www.w3.org/2000/svg" viewBox="0 0 152.86 144.92"><title>gb-judge</title><path d="M729.59,344.76l-44.94-30.91c0.12-.21.27-0.52,0.47-0.81,1.64-2.39,3.25-4.8,4.95-7.14a3,3,0,0,1,1.61-1.06c1.84-.44,3.72-0.68,5.56-1.11a2.75,2.75,0,0,0,1.53-1q11.88-17.17,23.66-34.41a2.94,2.94,0,0,0,.38-1.89c-0.24-1.83-.7-3.64-0.93-5.47a3.21,3.21,0,0,1,.44-2c1.51-2.33,3.17-4.56,4.68-6.89,0.6-.93,1-1,2-0.37q20.85,14.41,41.76,28.75c2.05,1.41,2,1.41.67,3.43s-2.68,4-4.13,6a3.44,3.44,0,0,1-1.8,1.16c-1.75.44-3.57,0.63-5.32,1.07a3.18,3.18,0,0,0-1.71,1.11c-2.27,3.17-4.42,6.43-6.69,9.61-0.66.92-.51,1.35,0.39,2q35.53,24.39,71,48.82c3,2.05,6,4.08,8.94,6.17a7.65,7.65,0,0,1,2.74,9.1,7.46,7.46,0,0,1-8.32,4.73,10.53,10.53,0,0,1-3.91-1.74q-31.32-21.46-62.58-43c-5.57-3.83-11.15-7.65-16.7-11.51-0.82-.57-1.23-0.53-1.8.32-2.19,3.28-4.48,6.49-6.67,9.77a3,3,0,0,0-.41,1.88c0.24,1.87.66,3.72,1,5.59a2.17,2.17,0,0,1-.09,1.38C733.43,339.16,731.49,342,729.59,344.76Z" transform="translate(-682.49 -251.34)"/><rect y="131.29" width="69.57" height="13.63"/></svg>