<svg id="Layer_1" data-name="Layer 1" xmlns="http://www.w3.org/2000/svg" viewBox="0 0 122.01 122.16"><title>gb-logo</title><path d="M741,613.47c2.76-4.67,5.48-9.28,8.21-13.88,3-5,6-10,9-15,2.41-4.07,4.79-8.17,7.2-12.25q4.17-7,8.38-14.06c0.38-.64.66-1.57,1.22-1.8s1.44,0.23,2.18.38a31.45,31.45,0,0,0,17-1.2,30,30,0,0,0,14.15-10.33,29.25,29.25,0,0,0,6.23-16.74c0.09-2.17,0-4.35,0-6.4,14.26,18.51,17.21,49.64-1.49,73.21C792.74,621,760.51,622.82,741,613.47Z" transform="translate(-704.16 -496.48)"/><path d="M727.68,605.59c-19-14-30.1-42.89-19.27-70.14,12.25-30.82,42.72-41.48,64.29-38.17a30.86,30.86,0,0,0-19.9,24.56A31,31,0,0,0,755.17,539a32.42,32.42,0,0,0,5.9,8.88,0.9,0.9,0,0,1,.12,1.27c-0.94,1.6-1.9,3.18-2.85,4.78l-6.71,11.35c-2,3.45-4.11,6.9-6.15,10.36q-3.33,5.63-6.64,11.26l-5.51,9.3L728,605.08Z" transform="translate(-704.16 -496.48)"/><path d="M800.23,496.48a1.33,1.33,0,0,1,.94.58c3.27,5.53,6.5,11.08,9.75,16.62,0.92,1.58,1.9,3.13,2.78,4.73a1.39,1.39,0,0,1,0,1.16c-2.2,3.87-4.46,7.72-6.69,11.57-1.8,3.1-3.61,6.19-5.39,9.31a1.34,1.34,0,0,1-1.35.81c-7.58.06-15.16,0.17-22.74,0.26a6,6,0,0,1-1.45-.1,1.58,1.58,0,0,1-.95-0.55c-3.88-6.59-7.67-13.24-11.63-19.79a3.27,3.27,0,0,1,0-4c3.12-5.29,6.07-10.69,9.08-16,0.76-1.35,1.51-2.7,2.31-4a1.1,1.1,0,0,1,.81-0.41C779.44,496.64,795.77,496.45,800.23,496.48Z" transform="translate(-704.16 -496.48)"/></svg>