<svg id="Layer_1" data-name="Layer 1" xmlns="http://www.w3.org/2000/svg" viewBox="0 0 119.79 99.38"><title>gb-mentorship</title><path d="M709.39,742l-11.72,37h96.73l-12.63-37H709.39Zm76.77,28.68-79.48-.22L713.45,746h64.93Z" transform="translate(-674.6 -679.62)"/><circle cx="11.53" cy="41.97" r="11.53"/><path d="M772.87,731.77h-8.76q-21.8,0-43.61,0c-1,0-1.4-.23-1.36-1.19,0.08-1.69.07-3.39,0-5.08a5.26,5.26,0,0,1,2.54-4.65,84.12,84.12,0,0,1,14.05-8.07,2,2,0,0,0,1.46-2.17c-0.09-2.44,0-4.89-.06-7.33a4.87,4.87,0,0,0-.74-1.66c-0.48-1-1.34-2-1.39-3-0.17-3.45-.15-6.92,0-10.38,0.15-4.59,3.89-8.11,9-8.5,3.29-.26,6.54-0.21,9.32,1.8a8.61,8.61,0,0,1,3.85,7.16c0,3.12,0,6.24,0,9.37a4.69,4.69,0,0,1-1.67,3.76,1.72,1.72,0,0,0-.54,1.17c0,2.75,0,5.49,0,8.24a1.47,1.47,0,0,0,1.15,1.41,91.84,91.84,0,0,1,14,8c1.95,1.34,3,2.91,2.85,5.19C772.76,727.72,772.87,729.67,772.87,731.77Z" transform="translate(-674.6 -679.62)"/><path d="M4.75,56.15h6A15.48,15.48,0,0,1,26.2,71.63V87.85A3.22,3.22,0,0,1,23,91.07H4.75a3.22,3.22,0,0,1-3.22-3.22V59.37A3.22,3.22,0,0,1,4.75,56.15Z"/></svg>