<svg id="Layer_1" data-name="Layer 1" xmlns="http://www.w3.org/2000/svg" viewBox="0 0 191.39 178.76"><title>gb-matcher</title><rect x="59.5" y="73" width="75" height="10"/><rect x="59.5" y="106" width="75" height="12"/><path d="M26.19,671c-0.45,4.86-.83,9.2-1.27,13.53s0.24,8.09,2.81,11.38c3.58,4.57,8.14,6.17,13.48,4.67,5.06-1.42,8.74-6.08,9.37-11.74,0.46-4.14.8-8.3,1.19-12.45L52,673.88a40.56,40.56,0,0,1,3.44,3.22c4.94,5.87,7.69,12.71,7.2,20.78-0.62,10.24-5.12,17.93-13.29,23.06a3.22,3.22,0,0,0-1.73,2.75q-4.12,44.72-8.35,89.43A7.29,7.29,0,0,0,40.35,818a21.75,21.75,0,0,1-1.7,24.73A18,18,0,0,1,11.26,844a22,22,0,0,1,.21-29.87,4.93,4.93,0,0,0,1.27-2.71q4.32-45.37,8.55-90.75a3.29,3.29,0,0,0-1.24-3C6.54,705,8.58,681.73,24,672.2,24.58,671.84,25.2,671.54,26.19,671Zm5.48,159.72c0.47-6.36,1-4.37-2.79-7.88-2.52-2.32-4.6-2.38-7.57-.91s-3.94,3.13-4.26,6.51,0.48,5.27,3,7.27,4.55,2.4,7.44.82C30.19,835.07,32.33,833.8,31.67,830.72Z" transform="translate(-5.5 -671)"/><path d="M178.39,672.2c15.42,9.53,17.46,32.78,4,45.44a3.29,3.29,0,0,0-1.24,3q4.3,45.37,8.55,90.75a4.93,4.93,0,0,0,1.27,2.71,22,22,0,0,1,.21,29.87,18,18,0,0,1-27.38-1.25A21.75,21.75,0,0,1,162,818a7.29,7.29,0,0,0,1.06-4.93q-4.23-44.71-8.35-89.43a3.22,3.22,0,0,0-1.73-2.75c-8.16-5.12-12.67-12.81-13.29-23.06-0.49-8.07,2.26-14.91,7.2-20.78a40.56,40.56,0,0,1,3.44-3.22l0.23,2.51c0.39,4.15.72,8.31,1.19,12.45,0.63,5.65,4.32,10.32,9.37,11.74,5.34,1.5,9.9-.1,13.48-4.67,2.57-3.28,3.25-7.17,2.81-11.38s-0.82-8.67-1.27-13.53C177.18,671.54,177.8,671.84,178.39,672.2Zm-3.53,164.32c2.89,1.58,4.85,1.21,7.44-.82s3.35-3.87,3-7.27-1.39-5.09-4.26-6.51-5-1.41-7.57.91c-3.81,3.51-3.26,1.52-2.79,7.88C170.05,833.8,172.19,835.07,174.86,836.53Z" transform="translate(-5.5 -671)"/></svg>