<svg id="Layer_1" data-name="Layer 1" xmlns="http://www.w3.org/2000/svg" viewBox="0 0 138.48 126.41"><title>gb-notes</title><path d="M977,150.36c-4,0-8.07,0-12.11,0-1.37,0-1.72-.43-1.71-1.62,0-7.28,0-14.56.07-21.84a3.89,3.89,0,0,1,1.13-2.57c6.79-6.31,13.66-12.55,20.51-18.81L1027,67.05c1.62-1.48,1.61-1.52,3.22,0,8.14,7.44,16.26,14.9,24.44,22.31,1.05,1,1.07,1.51,0,2.48q-31.26,28.49-62.43,57.06a5.32,5.32,0,0,1-4.1,1.55c-3.71-.11-7.42,0-11.14,0h0Zm-5.25-15.76c0,2.71.06,4.58,0,6.44,0,1.12.28,1.57,1.61,1.55,4-.07,8.07,0,12.11-0.06a4.46,4.46,0,0,0,2.54-.95c2.1-1.76,4.06-3.66,6.08-5.5q15.34-14,30.7-28.06c0.88-.8.77-1.28-0.06-2-4.3-3.86-8.58-7.74-12.78-11.69-1.08-1-1.68-.89-2.69,0-10.73,9.87-21.37,19.84-32.36,29.47C973,127.17,970.36,130.43,971.72,134.6Zm71.92-44.06a13.29,13.29,0,0,0-.92-1c-4.32-4-8.68-7.9-13-11.89a1.36,1.36,0,0,0-2.24,0q-4.8,4.47-9.71,8.83c-1,.84-1,1.38,0,2.25q6.5,5.83,12.87,11.77c0.86,0.8,1.43.9,2.35,0,3.21-3,6.5-6,9.75-9C1043,91.25,1043.29,90.93,1043.64,90.54Z" transform="translate(-916.95 -42.2)"/><path d="M977.26,168.61h-41.5c-4.79,0-9.57,0-14.36,0-2.71,0-4.4-1.56-4.46-3.75s1.7-4,4.54-4c3.77-.09,7.53-0.1,11.3-0.09l54.9,0h36.49c2.26,0,2.28,0,2.28-2,0-8.61,0-17.22,0-25.83,0-2.1,0-2.11,2.29-2.14,1.51,0,3,0,4.52,0,1.32-.07,1.78.35,1.77,1.59-0.05,6.44,0,12.89,0,19.34q0,7.53,0,15.06c0,1.86,0,1.9-2.07,1.9h-55.7v0Z" transform="translate(-916.95 -42.2)"/><path d="M977.39,42.22h55.37c2.28,0,2.28,0,2.28,2.11q0,6,0,12c0,1.93,0,1.93-2.18,1.93-1.56,0-3.12-.06-4.68,0-1.25.06-1.76-.37-1.72-1.52,0.06-1.67-.06-3.35.06-5,0.09-1.3-.41-1.71-1.83-1.71-13.13,0-26.26,0-39.39,0H921.7c-2.8,0-4.66-1.43-4.74-3.64-0.08-2.4,1.72-4.12,4.57-4.13,10.44,0,20.88,0,31.32,0h24.54Z" transform="translate(-916.95 -42.2)"/><rect x="0.02" y="19.38" width="83.33" height="8.67"/><rect x="0.02" y="79.69" width="39.37" height="8.67"/><rect x="0.02" y="59.59" width="59.04" height="8.67"/><rect x="0.02" y="39.49" width="71.71" height="8.67"/><rect x="0.02" y="99.8" width="39.37" height="8.67"/></svg>