<svg id="Layer_1" data-name="Layer 1" xmlns="http://www.w3.org/2000/svg" viewBox="0 0 167.67 145"><title>gb-objective</title><rect width="89.5" height="10"/><rect x="11.96" y="29.21" width="119.67" height="10"/><rect x="48.67" y="56.98" width="116.17" height="10"/><rect x="30.33" y="84.69" width="55.83" height="10"/><rect x="14.67" y="113.39" width="65.5" height="10"/><path d="M811.32,1195.28c0,1.07,0,2.14,0,3.21,0,0.58-.26.65-0.71,0.65s-0.72-.07-0.71-0.65q0-3.33,0-6.66c0-.62.33-0.6,0.75-0.61s0.68,0.08.67,0.61C811.3,1193,811.32,1194.13,811.32,1195.28Z" transform="translate(-679.83 -1122.5)"/><path d="M824.7,1202.75l3.75-6.71,1.22,0.71-2.59,4.65-0.66,1.18C825.8,1203.69,825.72,1203.7,824.7,1202.75Z" transform="translate(-679.83 -1122.5)"/><path d="M796.58,1202.8l-1.22.71-3.79-6.79,1.2-.75Z" transform="translate(-679.83 -1122.5)"/><path d="M842.86,1247.85l-0.69,1.26-6.61-3.94,0.71-1.25Z" transform="translate(-679.83 -1122.5)"/><path d="M779,1209.63l6.59,3.94-0.67,1.27-6.59-3.93Z" transform="translate(-679.83 -1122.5)"/><path d="M784.83,1243.83l0.71,1.25-6.59,3.94-0.72-1.24Z" transform="translate(-679.83 -1122.5)"/><path d="M829.59,1262.05l-1.21.72-3.8-6.81,1.19-.76Z" transform="translate(-679.83 -1122.5)"/><path d="M773.77,1230c-0.26-1.34-.22-1.4,1-1.4,1.91,0,3.82,0,5.73,0,0.49,0,.81,0,0.83.7s-0.34.75-.86,0.75c-2,0-4,0-6,0C774.25,1230,774,1230,773.77,1230Z" transform="translate(-679.83 -1122.5)"/><path d="M847.4,1230.28c-2.41,0-4.78-.07-7.15-0.08-0.55,0-.43-0.52-0.38-0.81a0.64,0.64,0,0,1,.44-0.49,7.11,7.11,0,0,1,1.39.1h4.65C847.6,1229,847.6,1228.85,847.4,1230.28Z" transform="translate(-679.83 -1122.5)"/><path d="M791.47,1262l3.81-6.82,1.22,0.71-3.8,6.82Z" transform="translate(-679.83 -1122.5)"/><path d="M836.31,1214.91l-0.71-1.25,6.58-3.93,0.75,1.22Z" transform="translate(-679.83 -1122.5)"/><rect x="130.38" y="137.37" width="1.25" height="7.63"/><rect x="129.17" y="81" width="3" height="25.09"/><rect x="807.46" y="1222.21" width="19.76" height="3.39" transform="translate(-1182.28 -549.86) rotate(-30)"/></svg>