<svg id="Layer_1" data-name="Layer 1" xmlns="http://www.w3.org/2000/svg" viewBox="0 0 126.62 121.51"><title>gb-observer</title><polygon points="44.24 49 44.24 61 59.24 61 59.24 73 44.24 73 44.24 74.37 56.2 104 0 104 16.36 17 20.24 17 20.24 7 14.24 7 14.24 0 44.24 0 44.24 7 38.24 7 38.24 17 44.24 17 44.24 23 59.24 23 59.24 49 44.24 49"/><rect y="112.13" width="55.96" height="9.38"/><polygon points="79.24 49 79.24 61 67.24 61 67.24 73 79.24 73 79.24 74.37 69.47 104 125.67 104 109.31 17 104.24 17 104.24 7 111.24 7 111.24 0 79.24 0 79.24 7 86.24 7 86.24 17 79.24 17 79.24 23 67.24 23 67.24 49 79.24 49"/><rect x="774.42" y="150.13" width="55.96" height="9.38" transform="translate(901.03 271.63) rotate(-180)"/><rect x="52.4" y="47.37" width="20.87" height="12.57"/></svg>