<svg id="Layer_1" data-name="Layer 1" xmlns="http://www.w3.org/2000/svg" viewBox="0 0 189.19 171.05"><defs><style>.cls-1{fill:none;}</style></defs><title>gb-promise</title><path d="M1074,289.86v-2.37c-2-1.07-5.07-3.54-5.56-3-32.57,34.54-64.82,69.37-97.39,103.9-1.42,1.51-5.19.44-7.88,0.57,0.11-2.93-.9-7,0.51-8.62,8.17-9.56,16.93-18.55,25.42-27.81a2.46,2.46,0,0,0-.13-2.25c-1.63-1.31-4.63-3.7-5-3.3-8.69,8.83-16.92,18.21-25.74,26.88-1.63,1.6-5.45.62-8.26,0.84,0.22-3-.66-7.14.84-8.9,8.06-9.44,16.77-18.23,25-27.52,0.38-.43-1.74-3.61-2.94-5.31a2.18,2.18,0,0,0-2.25-.26c-8.6,9.08-16.93,18.46-25.8,27.21-1.54,1.52-5.27.49-8,.64,0.11-2.93-.9-7,0.51-8.61,8.17-9.56,17-18.51,25.3-27.93,0.36-.41-1.61-3.46-2.76-5-0.4-.55-2.06-0.89-2.42-0.52-8.72,9.19-17.19,18.68-26.15,27.58-1.43,1.42-5,.33-7.64.39,0-2.84-1.18-6.8.13-8.33,8.09-9.46,16.72-18.41,25.21-27.47,10.36-11,23.74-20.38,19.29-39.76a1.72,1.72,0,0,1,1.08-1.21q8.51-.12,17,0a2.27,2.27,0,0,1,1.45,1.28q8.58,18.36,17.06,36.78c2.84,6.2,9.6,9,15.44,6.26s8.58-9.93,6.08-16.42q-8.52-22.08-17.17-44.1a2.83,2.83,0,0,0-2.14-1.46c-12.95-.09-26-1.29-38.81.24-16.92,2-30.15-2.79-39.93-17.93a1.81,1.81,0,0,0-1.83.06c-5.55,5.83-11,11.76-16.52,17.64-8.32,8.86-17,17.69-25,26.53v1.32c11,11.79,22.09,23.56,33.11,35.36,7.77,8.33,7.22,7.89.4,17-2.67,3.59-4.23,10.42-2.91,14.52s6.9,6.33,10.6,9.42a3.17,3.17,0,0,1,1.28,1.4c1.1,7.42,5.1,11.6,12,12.81a2,2,0,0,1,1.26,1.38c1.12,7.39,5,11.65,12,12.77a2.89,2.89,0,0,1,1.28,1.28c2.88,4,5,10,8.78,11.52s9.45-.72,13.54-2.92c3.53-1.9,6-6.11,9-9.21a1.79,1.79,0,0,1,1.85,0c5.63,5.5,11.19,11.08,16.77,16.65,3.93,3.58,8.44,1.59,11.55,1.59,2.49-4.11,6-7.93,5.27-13.9,0.38-.61.94-1.54,1.45-1.56,7.09-.28,11.93-5.49,12.16-13.07a2.18,2.18,0,0,1,1.47-1.53c6.83-.22,12-5.68,12.22-12.84,0-.65,1-1.38,1.68-1.88,3.74,1.27,9.25-1.5,10.52-8.36,1.37-3.77-.38-9.9-2.57-13.82-2.64-4.71-7.35-8-10.79-12.3-0.8-1-.9-4.08-0.09-5C1055.7,309.3,1065,299.61,1074,289.86Z" transform="translate(-885 -232.95)"/><path class="cls-1" d="M885,278.53q12.5-13.26,25-26.53c5.51-5.87,11-11.8,16.52-17.64a1.81,1.81,0,0,1,1.83-.06c9.78,15.14,23,20,39.93,17.93,12.79-1.53,25.86-.33,38.81-0.24a2.83,2.83,0,0,1,2.14,1.46q8.68,22,17.17,44.1c2.51,6.49-.17,13.63-6.08,16.42s-12.59-.05-15.44-6.26q-8.44-18.43-17.06-36.78a2.27,2.27,0,0,0-1.45-1.28q-8.51-.14-17,0a1.72,1.72,0,0,0-1.08,1.21c4.44,19.38-8.93,28.71-19.29,39.76-8.5,9.06-17.12,18-25.21,27.47-1.31,1.53-.15,5.49-0.13,8.33,2.6-.07,6.2,1,7.64-0.39,9-8.9,17.43-18.39,26.15-27.58,0.35-.37,2,0,2.42.52,1.16,1.59,3.13,4.63,2.76,5-8.33,9.41-17.12,18.36-25.3,27.93-1.41,1.65-.4,5.68-0.51,8.61,2.72-.15,6.44.88,8-0.64,8.87-8.76,17.2-18.13,25.8-27.21a2.18,2.18,0,0,1,2.25.26c1.19,1.71,3.32,4.88,2.94,5.31-8.21,9.29-16.92,18.09-25,27.52-1.5,1.76-.62,5.87-0.84,8.9,2.81-.21,6.63.76,8.26-0.84,8.82-8.67,17-18,25.74-26.88,0.39-.4,3.39,2,5,3.3a2.46,2.46,0,0,1,.14,2.25c-8.49,9.26-17.24,18.25-25.41,27.81-1.41,1.65-.4,5.69-0.5,8.62,2.69-.13,6.48.94,7.9-0.57,32.57-34.53,64.87-69.36,97.44-103.9,0.49-.52,3.71,2,5.65,3q0-26.75,0-53.5a1.42,1.42,0,0,0-.94-1q-93.62-.07-187.23,0a1.42,1.42,0,0,0-.94,1Q885,256.26,885,278.53Z" transform="translate(-885 -232.95)"/></svg>