<svg id="Layer_1" data-name="Layer 1" xmlns="http://www.w3.org/2000/svg" viewBox="0 0 175.39 153.33"><defs><style>.cls-1{fill:#fff;}</style></defs><title>gb-promise-2</title><path d="M631,530.5a55.74,55.74,0,0,1-3.95-6.22c-8.51-18-17-36-25.29-54.22-2.06-4.54-3.68-5.2-7.29-2.36-7.09,5.59-14.55,10.45-21.81,15.74-5.32,3.87-4.67,4.63-1.58,11.47,7.53,16.65,16.37,34.44,25.08,54,2.45,5.51,4.25,6.23,8.23,3.34,8.81-6.4,17.73-12.54,26.61-18.79v-3Z" transform="translate(-455.61 -458.26)"/><path d="M523.23,490.89c6.34-11,16.34-10.23,26.51,4.59,1,1.44,11.6-1.81,13.58,1.3,6.07,9.5,26.58,53.19,30.86,65.44a7.83,7.83,0,0,1,.39,2.17c0.44,9.5-13.76,22.13-15.69,23.24-0.49.28-1.3-.25-1.76,0.06-0.93.61-2.25,1.34-2.48,2.35-1.37,6-4.43,7.49-9.32,8.17-3.38.47-6.27,5.27-9.65,7.5-1,.66-3.41-0.3-4.36-1.5-2.64-3.36-4.37-1.33-6.67.54a49.23,49.23,0,0,1-10.46,6.82c-1.27.57-4.46-7-3.46-8.45,2.7-4,6-7.38,8.64-11.42,1.16-1.76-2.18-6-3.59-4.55-4.17,4.26-7.75,9.46-12.09,13.39-1.51,1.37-7.15-6.52-5.91-8.41,3.16-4.78,7.22-8.61,10.65-13.14,1-1.29-2-5.1-3.1-3.93-4,4.21-7.57,8.89-11.41,13.27-2.45,2.8-8.53-5.62-6.5-8.15,3.11-3.88,6.47-7.46,9.45-11.49l0,0c1.65-2.3-.62-5.87-2.85-4.51a2.85,2.85,0,0,0-.51.39c-3.78,3.68-7,8.28-10.88,11.73-1.5,1.33-7.14-4.8-6.88-7.46,0.14-1.47,1.53-2.85,2.51-4.08,2.85-3.59-6.62-8.18-8.43-14.37C489.64,549.64,519.94,496.56,523.23,490.89Zm7.84,2.91c-2.49,4.52-25.78,38.61-34.22,49.33-3.65,4.63-.66,3.21,5.13,10.91,4.87,6.49,7.27-.52,15.08-9.37,6.66-7.54,18.87-26.32,20.84-25.34,2.7,1.36,14.87,26.11,18.89,20.29,1.14-1.66,4.7-3.46,5.54-6.4C562.89,531.2,539.5,478.48,531.07,493.8Zm44.42,87.41c1.24,1.4,6.6-4.49,5.64-6.09-3.06-5.14-11.09-19-12.53-18.58-0.79.21-3.79,4-4.42,5.14a3.57,3.57,0,0,0-.1,3.14C564.58,565.9,571.83,577.09,575.49,581.21Zm-4.82,6.38a145.41,145.41,0,0,0-11.35-16.33c-0.67-.85-5.93,4.64-5.38,5.51,3.57,5.67,7.49,11,11.38,16.34C565.78,593.75,571.35,588.75,570.67,587.59Zm-13.72,12.35c0.77-1.81,2.16-3,2-3.23a70.84,70.84,0,0,0-8.52-10.21c-0.18-.18-1.39,1.25-2.91,3a3.45,3.45,0,0,0,.08,4.43C549.8,596.21,555.05,604.41,556.94,599.94Z" transform="translate(-455.61 -458.26)"/><path d="M456.59,521c9.53-20.48,19-41,28.74-61.34,0.55-1.16,3.56-1.78,4.72-1,8.3,5.54,18.79,14.29,27.12,19.77,4.37,2.87-19.32,43.21-27.65,62.52-1.8,4.18-3.42,6-6.89,3.54-8.19-5.8-16.37-11.6-24.49-17.53-1.07-.78-1.78-2.31-2.53-3.33C456.08,522.29,456.29,521.59,456.59,521Zm6.66,3.21c5.88,4.29,11.82,8.46,17.73,12.68,3.38,2.42,5.23.95,7.15-3.13,7.3-15.57,14.86-31.35,22.52-47.48,1.81-3.81,1.49-5.72-1.39-7.73-6.12-4.27-12.1-8.86-18.33-12.87-1.16-.75-4.12-0.12-4.68,1-8.36,17.3-16.46,34.8-24.6,52.26-0.3.64-.47,1.36-0.85,2.49A17.71,17.71,0,0,0,463.25,524.16Z" transform="translate(-455.61 -458.26)"/><path class="cls-1" d="M584.28,571.83c0.94-2.25,4.76-5.85,4.22-6.78-2.84-4.91-5.28-11.81-8.85-15.93-0.37-.42-4.08,4.8-5.72,6.08l9.54,16.74Z" transform="translate(-455.61 -458.26)"/></svg>