<svg id="Layer_1" data-name="Layer 1" xmlns="http://www.w3.org/2000/svg" viewBox="0 0 171.2 145.79"><title>gb-request-mentee</title><path d="M728.37,1208l-16.76,53H849.85l-18-53H728.37Zm109.72,40.73-113.58-.54,9.66-35.19H827Z" transform="translate(-678.65 -1115.21)"/><circle cx="16.48" cy="63.81" r="16.48"/><path d="M819.09,1193.57H806.56q-31.16,0-62.32,0c-1.46,0-2-.32-1.94-1.7,0.12-2.41.1-4.84,0-7.26A7.52,7.52,0,0,1,746,1178a120.22,120.22,0,0,1,20.09-11.53c1.57-.7,2.15-1.53,2.09-3.1-0.13-3.49,0-7-.08-10.48a7,7,0,0,0-1.05-2.37c-0.69-1.44-1.91-2.86-2-4.32-0.25-4.94-.21-9.89-0.05-14.83,0.21-6.55,5.56-11.58,12.83-12.15,4.71-.37,9.35-0.31,13.33,2.57a12.3,12.3,0,0,1,5.5,10.23c0.06,4.46,0,8.92,0,13.39a6.71,6.71,0,0,1-2.39,5.38,2.46,2.46,0,0,0-.78,1.67c-0.06,3.92,0,7.85-.05,11.77,0,1.16.69,1.58,1.65,2a131.24,131.24,0,0,1,20,11.38c2.78,1.92,4.3,4.16,4.07,7.41C818.93,1187.78,819.09,1190.57,819.09,1193.57Z" transform="translate(-678.65 -1115.21)"/><path d="M5.41,84.07H22A15.48,15.48,0,0,1,37.44,99.56v31.2A3.22,3.22,0,0,1,34.23,134H5.41a3.22,3.22,0,0,1-3.22-3.22V87.29A3.22,3.22,0,0,1,5.41,84.07Z"/><rect x="20.45" y="15.36" width="56.38" height="12.77"/><polygon points="2.32 21.74 28 43.48 28 0 2.32 21.74"/></svg>