<svg id="Layer_1" data-name="Layer 1" xmlns="http://www.w3.org/2000/svg" viewBox="0 0 177.38 147.85"><title>gb-swipe</title><path d="M498.5,171.15c-7.11-2.28-10.79-20.34-9.76-27.67,2-13.92,4.21-27.81,6.58-41.66,1-5.61,5.46-9.5,11.61-10.35,9.7-1.34,19.43-2.57,29.18-3.57,3.07-.32,4.78-1.36,5.88-4.37,5.54-15.06,11.3-30,17-45.05C560.64,34,563.77,32,567.7,33s5.86,4.43,4.7,9.08c-4.48,18.06-9.13,36.09-13.72,54.12-1.4,5.51-2.77,11-4.23,16.51-0.88,3.32-.44,6.25,2.37,8.44s5.85,1.73,8.73-.07c5.06-3.16,10-6.46,15.18-9.48,4-2.37,8.53-1.22,10.26,2.44,1.52,3.22.78,6.14-1.75,8.53-15.08,14.25-32.08,32.65-47.23,46.82C538.42,172.78,503.78,172.84,498.5,171.15Z" transform="translate(-453.27 -24.4)"/><path d="M595.07,62.56c-0.33.73-.47,1.12-0.67,1.47-4.13,7.11-4.14,7.22,3.84,7.88,9.61,0.8,19.24,1.41,28.87,2a14.72,14.72,0,0,0,3.54-.65c-0.34-1.3-.38-2.79-1.07-3.87q-8.43-13.32-17.07-26.5c-2.21-3.38-3.12-3.27-5.37.24l-2.91,4.55c-4.26-2.24-8.31-4.48-12.45-6.51-5.15-2.52-9.49-3.44-10.42,2.2-0.57,3.49-3.12,7.86-1.88,10.54s10,4.87,13,6.69C593.27,61.15,594,61.79,595.07,62.56Z" transform="translate(-453.27 -24.4)"/><rect x="508.37" y="25.39" width="35.51" height="17.76" rx="5.33" ry="5.33" transform="translate(594.51 86.4) rotate(-175.38)"/><rect x="474.42" y="28.84" width="22.33" height="17.76" rx="5.33" ry="5.33" transform="translate(510.63 -78.41) rotate(164.7)"/><rect x="454.86" y="39.9" width="13.45" height="17.76" rx="5.33" ry="5.33" transform="translate(432.44 -164.17) rotate(150)"/></svg>