<svg id="Layer_1" data-name="Layer 1" xmlns="http://www.w3.org/2000/svg" viewBox="0 0 162.73 165"><title>gb-skill</title><path d="M596.23,53c-0.34,3.31-.61,6.27-0.94,9.22A9.72,9.72,0,0,0,597.37,70a9.26,9.26,0,0,0,10,3.19,9.39,9.39,0,0,0,7-8c0.34-2.82.59-5.66,0.88-8.49l0.17-1.71a29.22,29.22,0,0,1,2.55,2.2c3.66,4,5.7,8.67,5.34,14.17A18.63,18.63,0,0,1,613.41,87a2.19,2.19,0,0,0-1.28,1.87q-3.05,30.49-6.19,61a4.65,4.65,0,0,0,.78,3.36,13.87,13.87,0,0,1-1.26,16.86,14,14,0,1,1-20.15-19.52,3.26,3.26,0,0,0,.94-1.85q3.2-30.94,6.34-61.88a2.16,2.16,0,0,0-.92-2.08,19,19,0,0,1,2.93-31C595,53.55,595.5,53.35,596.23,53Zm4.06,108.91c0.35-4.34.76-3-2.07-5.37-1.87-1.58-3.41-1.62-5.61-.62a5.46,5.46,0,0,0-.91,9.39c1.92,1.38,3.37,1.64,5.52.56C599.2,164.85,600.78,164,600.29,161.89Z" transform="translate(-460.57 -17)"/><path d="M460.57,142.61a16.85,16.85,0,0,1,.89-2.26c1.87-3.3,3.61-6.69,5.73-9.83,3.44-5.09,7.05-10.06,10.74-15,3.88-5.17,7.84-10.28,11.93-15.28,5.77-7.07,11.58-14.11,17.57-21,5.57-6.4,11.37-12.61,17.12-18.84,2-2.16,4.15-4.17,6.25-6.24,1.13-1.11,1.87-1.19,3.08-.25,1.47,1.15,2.9,2.36,4.3,3.6a1.75,1.75,0,0,1,.3,2.62c-3.4,4.81-6.74,9.66-10.25,14.39q-5.75,7.75-11.76,15.29-6.25,7.82-12.77,15.44c-4.76,5.59-9.55,11.18-14.51,16.6S479,132.77,473.68,138c-2.39,2.38-5.18,4.35-7.78,6.5a2.26,2.26,0,0,1-.24.15c-2.23,1.41-3.15,1.3-4.94-.57Z" transform="translate(-460.57 -17)"/><path d="M569.67,19.6c-0.43,2.11-.75,4.24-1.3,6.32a52,52,0,0,1-6.27,15.33c-3.5,5.37-8.27,9.25-14.77,10.48-3,.57-5.83,0-8-2.41a9.21,9.21,0,0,1-2.09-7.21A23.55,23.55,0,0,1,543.81,28c1.51-1.65,2.86-1.85,4.88-.95,0.89,0.4,1.77.84,2.65,1.29a6.19,6.19,0,0,0,6.81-.56,25.89,25.89,0,0,0,5.33-5.63c1.19-1.52,2.44-3,3.73-4.43a1.37,1.37,0,0,1,2.27-.19Z" transform="translate(-460.57 -17)"/><path d="M534.53,51.58c-0.19-1.74,1.22-2.77,2.55-2.12a10.25,10.25,0,0,1,1.83,1.33c1.08,0.87-1,1.6,0,2.5,0.34,0.29,3.84.76,4.1,1.12a1.79,1.79,0,0,1-.17,2.27,1.56,1.56,0,0,1-2.14.37c-1.09-.74-2.11-1.61-3.14-2.44-0.76-.61-1.54-1.21-2.25-1.89A6.27,6.27,0,0,1,534.53,51.58Z" transform="translate(-460.57 -17)"/><path d="M555.68,101.26c-3.83,7.85-7.69,15.69-11.48,23.57a10.79,10.79,0,0,1-10,6.62,2,2,0,0,0-1.45.93q-7.4,15-14.68,30.07a7,7,0,0,0-.51,2.29,17.42,17.42,0,0,1-3,8.45c-1.9,2.7-3.72,5.45-5.55,8.19a1,1,0,0,1-1.49.45q-2.36-1.21-4.76-2.32a1,1,0,0,1-.58-1.45c1.3-3.88,2.35-7.86,4-11.6,0.91-2.1,2.76-3.79,4.18-5.67a12.53,12.53,0,0,0,1.37-1.9q7.25-14.77,14.46-29.56a1.68,1.68,0,0,0-.18-2,10.33,10.33,0,0,1-1.07-11.42q11.71-24.07,23.47-48.11a10.62,10.62,0,0,1,18.72-.84,10.22,10.22,0,0,1,.29,10.26Q561.54,89.22,555.68,101.26Zm-14.5-7h0q-4.46,9.14-8.92,18.29c-0.73,1.5-1.47,3-2.15,4.53a1.43,1.43,0,0,0,.67,2,1.47,1.47,0,0,0,2-.63,10.68,10.68,0,0,0,.65-1.23l21.2-43.47c0.85-1.75.78-2.67-.25-3.14s-1.7,0-2.53,1.72Q546.53,83.25,541.19,94.22ZM551.11,99L561.8,77.09a2.61,2.61,0,0,0,.51-1.26,2.74,2.74,0,0,0-.9-1.76A2,2,0,0,0,559,75.66l-21.32,43.71a2.85,2.85,0,0,0-.53,1.26,3,3,0,0,0,.72,1.86,1.34,1.34,0,0,0,2-.59,11.33,11.33,0,0,0,.64-1.24Z" transform="translate(-460.57 -17)"/></svg>