<svg id="Layer_1" data-name="Layer 1" xmlns="http://www.w3.org/2000/svg" viewBox="0 0 185.71 178.04"><title>gb-teach</title><path d="M448,670V772H631V670H448Zm177,97H454V676H625v91Z" transform="translate(-447.67 -670)"/><path d="M549,785.13H534.7q-35.46,0-70.93,0c-1.67,0-2.29-.4-2.21-2.1,0.14-3,.11-6,0-9a9.56,9.56,0,0,1,4.14-8.24,134.44,134.44,0,0,1,22.86-14.29,3.57,3.57,0,0,0,2.38-3.84c-0.15-4.33,0-8.67-.1-13,0-1-.77-2-1.2-2.94-0.78-1.79-2.18-3.55-2.26-5.36-0.28-6.12-.24-12.27-0.06-18.39,0.24-8.13,6.33-14.36,14.6-15.07,5.36-.46,10.64-0.38,15.17,3.19a15.66,15.66,0,0,1,6.26,12.68c0.07,5.53,0,11.07,0,16.6a8.66,8.66,0,0,1-2.72,6.66,3.17,3.17,0,0,0-.88,2.07c-0.07,4.87,0,9.73-.06,14.6,0,1.44.79,2,1.87,2.5a146.65,146.65,0,0,1,22.75,14.11c3.17,2.38,4.9,5.16,4.64,9.19C548.78,777.95,549,781.41,549,785.13Z" transform="translate(-447.67 -670)"/><path d="M495.88,848H488q-19.56,0-39.12,0c-0.92,0-1.26-.22-1.22-1.16,0.08-1.65.06-3.31,0-5a5.27,5.27,0,0,1,2.28-4.55,74.16,74.16,0,0,1,12.61-7.88,2,2,0,0,0,1.31-2.12c-0.08-2.39,0-4.78-.05-7.17a5,5,0,0,0-.66-1.62c-0.43-1-1.2-2-1.25-3-0.16-3.38-.13-6.77,0-10.15a8.53,8.53,0,0,1,8.05-8.31c3-.25,5.87-0.21,8.37,1.76a8.64,8.64,0,0,1,3.46,7c0,3.05,0,6.1,0,9.16a4.78,4.78,0,0,1-1.5,3.68,1.75,1.75,0,0,0-.49,1.14c0,2.68,0,5.37,0,8.05a1.41,1.41,0,0,0,1,1.38,80.89,80.89,0,0,1,12.55,7.78,5.51,5.51,0,0,1,2.56,5.07C495.78,844.06,495.88,846,495.88,848Z" transform="translate(-447.67 -670)"/><path d="M633.33,848h-7.86q-19.56,0-39.12,0c-0.92,0-1.26-.22-1.22-1.16,0.08-1.65.06-3.31,0-5a5.27,5.27,0,0,1,2.28-4.55A74.16,74.16,0,0,1,600,829.48a2,2,0,0,0,1.31-2.12c-0.08-2.39,0-4.78-.05-7.17a5,5,0,0,0-.66-1.62c-0.43-1-1.2-2-1.25-3-0.16-3.38-.13-6.77,0-10.15a8.53,8.53,0,0,1,8.05-8.31c3-.25,5.87-0.21,8.37,1.76a8.64,8.64,0,0,1,3.46,7c0,3.05,0,6.1,0,9.16a4.78,4.78,0,0,1-1.5,3.68,1.75,1.75,0,0,0-.49,1.14c0,2.68,0,5.37,0,8.05a1.41,1.41,0,0,0,1,1.38,80.89,80.89,0,0,1,12.55,7.78,5.51,5.51,0,0,1,2.56,5.07C633.23,844.06,633.33,846,633.33,848Z" transform="translate(-447.67 -670)"/><path d="M564.6,848h-7.86q-19.56,0-39.12,0c-0.92,0-1.26-.22-1.22-1.16,0.08-1.65.06-3.31,0-5a5.27,5.27,0,0,1,2.28-4.55,74.16,74.16,0,0,1,12.61-7.88,2,2,0,0,0,1.31-2.12c-0.08-2.39,0-4.78-.05-7.17a5,5,0,0,0-.66-1.62c-0.43-1-1.2-2-1.25-3-0.16-3.38-.13-6.77,0-10.15a8.53,8.53,0,0,1,8.05-8.31c3-.25,5.87-0.21,8.37,1.76a8.64,8.64,0,0,1,3.46,7c0,3.05,0,6.1,0,9.16a4.78,4.78,0,0,1-1.5,3.68,1.75,1.75,0,0,0-.49,1.14c0,2.68,0,5.37,0,8.05a1.41,1.41,0,0,0,1,1.38,80.89,80.89,0,0,1,12.55,7.78,5.51,5.51,0,0,1,2.56,5.07C564.51,844.06,564.6,846,564.6,848Z" transform="translate(-447.67 -670)"/></svg>