<svg id="Layer_1" data-name="Layer 1" xmlns="http://www.w3.org/2000/svg" viewBox="0 0 138.98 137.86"><title>gb-weblink</title><path d="M990,1277.47a0.51,0.51,0,0,0-.17-0.12c-3.31-.59-5.49-2.83-7.68-5.12s-4.22-4.26-6.35-6.37c-4.34-4.3-4.39-10.16-.1-14.47,5-5,10-10.11,15.11-15.11,4.49-4.43,10.13-4.36,14.61.11,0.17,0.17.36,0.34,0.52,0.53a0.73,0.73,0,0,0,1.24,0c0.83-.86,1.67-1.72,2.56-2.53a0.82,0.82,0,0,0,0-1.46,10.17,10.17,0,0,1-3.37-5,9.43,9.43,0,0,1,2.49-9.64c4.35-4.42,8.76-8.79,13.15-13.18,0.87-.87,1.73-1.76,2.62-2.61a9.65,9.65,0,0,1,13.78,0q4.48,4.42,8.9,8.91a9.64,9.64,0,0,1,0,14q-7.79,7.84-15.64,15.63a9.63,9.63,0,0,1-13.47.3l-0.46-.43c-1.68-1.58-1.18-1.75-3,.08-0.55.54-1.07,1.13-1.64,1.65a0.75,0.75,0,0,0,0,1.31c0.34,0.3.65,0.65,1,1a9.66,9.66,0,0,1,0,13.79c-5.23,5.29-10.5,10.54-15.77,15.8a9.24,9.24,0,0,1-4.66,2.56,7.42,7.42,0,0,0-1,.36H990Zm10.55-23.23a14.45,14.45,0,0,1-1.92-1.06,16.78,16.78,0,0,1-1.66-1.63c-1.43-1.46-1.44-2.9,0-4.35,1-1.06,2.1-2.09,3.13-3.16a1.29,1.29,0,0,0,.44-0.87,2.37,2.37,0,0,0-3.84-1.14q-7.57,7.54-15.12,15.11c-1.08,1.08-1.07,1.77,0,2.87q4.14,4.16,8.3,8.31c1.1,1.1,1.83,1.11,3,0q7.56-7.55,15.11-15.12c1-1,1-1.7,0-2.71-0.22-.23-0.48-0.42-0.68-0.67a0.78,0.78,0,0,0-1.38,0c-1.07,1.12-2.15,2.24-3.31,3.27A11.74,11.74,0,0,1,1000.57,1254.24Zm21.68-31.47a15.88,15.88,0,0,1,2,1.1,14.44,14.44,0,0,1,1.58,1.56c1.46,1.5,1.47,3,0,4.45-1,1.06-2.08,2.11-3.15,3.13a0.75,0.75,0,0,0,0,1.31c0.24,0.2.45,0.45,0.67,0.67,1.07,1.06,1.72,1.09,2.78,0q7.64-7.62,15.25-15.27a1.58,1.58,0,0,0,0-2.64q-4.21-4.24-8.44-8.46c-1.08-1.08-1.79-1.06-2.87,0l-6.37,6.35q-4.42,4.41-8.82,8.83c-1,1-.94,1.65,0,2.64,0.22,0.23.47,0.44,0.66,0.68,0.49,0.62.93,0.58,1.47,0,1.07-1.12,2.15-2.24,3.3-3.28A11.24,11.24,0,0,1,1022.24,1222.77Z" transform="translate(-911.33 -1139.61)"/><rect width="89.5" height="10"/><rect y="50.07" width="89.5" height="10"/><rect y="25.04" width="89.5" height="10"/><rect y="75.11" width="89.5" height="10"/></svg>