<svg id="Layer_1" data-name="Layer 1" xmlns="http://www.w3.org/2000/svg" viewBox="0 0 88.35 175.37"><title>gb-wrenches</title><path d="M783.77,233.71c15,10.84,14.68,33.82-.61,44.9a3.2,3.2,0,0,0-1.59,2.86q-0.25,44.87-.54,89.73a4.69,4.69,0,0,0,1,2.78,20.8,20.8,0,0,1-2.88,29.28A19.36,19.36,0,0,1,751,399.36a20.47,20.47,0,0,1,.79-24.39,6.92,6.92,0,0,0,1.61-4.73q0.25-44.21.61-88.42a3.12,3.12,0,0,0-1.5-2.86c-7.92-5.82-11.79-13.79-11.37-23.89,0.33-8,3.89-14.38,9.61-19.65a42,42,0,0,1,3.9-2.82c0,1.14,0,1.81,0,2.48,0,4.1-.11,8.21-0.06,12.31A13.25,13.25,0,0,0,763,259.82c5.38,2,10.26.87,14.44-3.26,3-3,4.11-6.7,4.09-10.87s0-8.57.08-13.37C782.59,232.94,783.2,233.3,783.77,233.71ZM763.11,394.33c2.83,1.83,4.9,1.66,7.79-.07s3.87-3.46,3.89-6.82-0.91-5.12-3.73-6.79-5.08-1.88-7.93.15c-4.31,3.07-3.53,1.17-3.7,7.45C758.41,391.19,760.5,392.64,763.11,394.33Z" transform="translate(-723.28 -232.32)"/><path d="M725,356.26l-1.68-1,9.65-14.44a5.82,5.82,0,0,1,1.24.63,1.78,1.78,0,0,1,.29.85,0.2,0.2,0,0,1,0,.09c-1.33,2.82-1.28,3.21,1.52,5a65.21,65.21,0,0,0,16.74,7.29A67.19,67.19,0,0,0,774.85,357a45.89,45.89,0,0,0,13.73-2.48c4.57-1.67,8.55-4,11.14-7.94,3.87-5.85,1.42-13-5.46-15.85a28.25,28.25,0,0,0-9.65-2.17c-6.93-.31-13.87-0.53-20.8-0.84-6-.27-12-0.61-17.76-2-4.82-1.18-9.42-2.84-12.84-6.28-6.85-6.87-7-17.15-.46-24.39,3.4-3.75,7.83-6.17,12.8-7.89,9.1-3.14,18.55-4,28.22-3.55a82.6,82.6,0,0,1,26.63,5.95c1.21,0.47,2.46.87,3.64,1.39a2.66,2.66,0,0,0,3.23-.64l0.38-.36c1.13-1.08,1.13-1.08,2.66-.07l-9.15,14.77-1.79-.79c0.28-.77.51-1.52,0.82-2.25a2.14,2.14,0,0,0-.89-2.79,27.16,27.16,0,0,0-7.38-3.42,70.19,70.19,0,0,0-28-3.86c-6.54.4-12.86,1.7-18.48,4.87-3.52,2-6.13,4.71-7,8.47-1,4.4,1.4,8.9,5.88,11a30.88,30.88,0,0,0,11.65,2.61c7.92,0.4,15.85.65,23.76,1,5.49,0.27,11,.45,16.31,2,7.62,2.23,13.35,6.38,15,13.68,2.14,9.32-1.3,16.92-9.9,22.58-6.26,4.12-13.44,6-21,6.81a94.6,94.6,0,0,1-22.18-.41,69.28,69.28,0,0,1-17-4.69c-3.47-1.41-6.86-3-10.32-4.4-2.88-1.19-2.9-1.15-5.13.8C725.31,356,725.15,356.11,725,356.26Z" transform="translate(-723.28 -232.32)"/></svg>